M48
; DRILL file {KiCad 5.1.5-52549c5~84~ubuntu18.04.1} date Mon 30 Dec 2019 05:11:15 PM EST
; FORMAT={-:-/ absolute / inch / decimal}
; #@! TF.CreationDate,2019-12-30T17:11:15-05:00
; #@! TF.GenerationSoftware,Kicad,Pcbnew,5.1.5-52549c5~84~ubuntu18.04.1
FMAT,2
INCH
T1C0.0130
T2C0.0217
T3C0.0335
T4C0.0394
T5C0.1000
T6C0.0315
%
G90
G05
T1
X3.0827Y-3.2087
X3.0827Y-3.6756
X3.2598Y-3.5157
X3.2756Y-3.4803
X3.2913Y-3.4449
X3.3268Y-3.1378
X3.374Y-3.3543
X3.374Y-3.4409
X3.3996Y-3.7717
X3.4449Y-3.4724
X3.4449Y-3.689
X3.4882Y-3.4724
X3.4882Y-3.5906
X3.5157Y-3.1378
X3.5157Y-3.185
X3.5157Y-3.3976
X3.5709Y-3.3307
X3.5709Y-3.6575
X3.5906Y-3.7717
X3.6181Y-3.1378
X3.6181Y-3.2874
X3.6181Y-3.3976
X3.6535Y-3.4724
X3.6535Y-3.5315
X3.6535Y-3.5906
X3.6929Y-3.2126
X3.7047Y-3.622
X3.7323Y-3.2126
X3.7559Y-3.315
X3.7559Y-3.4921
X3.7559Y-3.5315
X3.7559Y-3.5709
X3.7677Y-3.689
X3.7677Y-3.7402
X3.7717Y-3.1378
X3.7795Y-3.2913
X3.7795Y-3.3386
X3.7913Y-3.8031
X3.8031Y-3.315
X3.8268Y-3.1378
X3.8268Y-3.4488
X3.8465Y-3.2677
X3.8543Y-3.4685
X3.8701Y-3.126
X3.874Y-3.5512
X3.8819Y-3.4882
X3.8858Y-3.2677
X3.9055Y-3.7126
X3.9094Y-3.5118
X3.9094Y-3.5512
X3.9291Y-3.1575
X3.9449Y-3.5118
X3.9449Y-3.5512
X3.9488Y-3.7126
X3.9567Y-3.4488
X3.9646Y-3.1575
X3.9724Y-3.2677
X3.9803Y-3.6181
X3.9882Y-3.4331
X4.0197Y-3.4173
X4.0236Y-3.5591
X4.0307Y-3.2677
X4.063Y-3.1378
X4.063Y-3.7441
X4.0709Y-3.5945
X4.1142Y-3.4409
X4.1181Y-3.315
X4.126Y-3.1378
X4.1339Y-3.6614
X4.1654Y-3.2677
X4.2165Y-3.3386
X4.2165Y-3.3976
X4.2165Y-3.5787
X4.2205Y-3.7441
X4.2598Y-3.1457
X4.2598Y-3.2047
X4.2598Y-3.2638
X4.3504Y-3.3031
X4.3858Y-3.1457
X4.3858Y-3.3031
X4.4213Y-3.1457
X4.4213Y-3.3031
X4.4567Y-3.3031
X4.4606Y-3.7795
X4.4921Y-3.8031
X4.5394Y-3.2047
X4.5394Y-3.252
X4.5394Y-3.3031
T4
X3.2421Y-3.8488
X3.3421Y-3.8488
X3.4421Y-3.8488
X3.5421Y-3.8488
X3.6421Y-3.8488
X3.7421Y-3.8488
X3.8421Y-3.8488
X3.9421Y-3.8488
X4.0421Y-3.8488
X4.1421Y-3.8488
X4.2421Y-3.8488
X4.3421Y-3.8488
X4.4421Y-3.8488
X4.5421Y-3.8488
X4.6421Y-3.8488
X4.7421Y-3.8488
X4.8421Y-3.1921
X4.8421Y-3.2921
X4.8421Y-3.3921
X4.8421Y-3.4921
X4.8421Y-3.5921
X4.8421Y-3.6921
X4.9421Y-3.1921
X4.9421Y-3.2921
X4.9421Y-3.3921
X4.9421Y-3.4921
X4.9421Y-3.5921
X4.9421Y-3.6921
X3.2421Y-3.0354
X3.3421Y-3.0354
X3.4421Y-3.0354
X3.5421Y-3.0354
X3.6421Y-3.0354
X3.7421Y-3.0354
X3.8421Y-3.0354
X3.9421Y-3.0354
X4.0421Y-3.0354
X4.1421Y-3.0354
X4.2421Y-3.0354
X4.3421Y-3.0354
X4.4421Y-3.0354
X4.5421Y-3.0354
X4.6421Y-3.0354
X4.7421Y-3.0354
T5
X3.0921Y-3.0921
X3.0921Y-3.7921
X4.8921Y-3.0921
X4.8921Y-3.7921
T6
X3.1614Y-3.3437
X3.1614Y-3.5406
T2
G00X3.0659Y-3.2896
M15
G01X3.0404Y-3.2896
M16
G05
G00X3.0659Y-3.5947
M15
G01X3.0404Y-3.5947
M16
G05
T3
G00X3.2136Y-3.2955
M15
G01X3.1919Y-3.2955
M16
G05
G00X3.2136Y-3.5888
M15
G01X3.1919Y-3.5888
M16
G05
T0
M30
