G04 #@! TF.GenerationSoftware,KiCad,Pcbnew,5.1.5-52549c5~84~ubuntu18.04.1*
G04 #@! TF.CreationDate,2019-12-30T17:31:03-05:00*
G04 #@! TF.ProjectId,junebug,6a756e65-6275-4672-9e6b-696361645f70,rev?*
G04 #@! TF.SameCoordinates,Original*
G04 #@! TF.FileFunction,Paste,Top*
G04 #@! TF.FilePolarity,Positive*
%FSLAX46Y46*%
G04 Gerber Fmt 4.6, Leading zero omitted, Abs format (unit mm)*
G04 Created by KiCad (PCBNEW 5.1.5-52549c5~84~ubuntu18.04.1) date 2019-12-30 17:31:03*
%MOMM*%
%LPD*%
G04 APERTURE LIST*
%ADD10R,1.820000X1.130000*%
%ADD11R,2.300000X6.400000*%
%ADD12R,0.830000X0.940000*%
%ADD13R,0.990000X1.780000*%
%ADD14R,0.300000X1.475000*%
%ADD15R,1.475000X0.300000*%
%ADD16R,1.785000X0.650000*%
%ADD17R,1.200000X0.600000*%
%ADD18R,1.000000X0.400000*%
%ADD19R,1.300000X0.450000*%
%ADD20R,1.250000X0.750000*%
%ADD21R,0.950000X0.800000*%
%ADD22R,0.800000X0.950000*%
%ADD23R,0.650000X1.050000*%
%ADD24R,1.100000X1.300000*%
%ADD25R,1.800000X1.000000*%
G04 APERTURE END LIST*
D10*
X84400000Y-83510000D03*
X84400000Y-86290000D03*
X86900000Y-86290000D03*
X86900000Y-83510000D03*
X89400000Y-83510000D03*
X89400000Y-86290000D03*
X91900000Y-86290000D03*
X91900000Y-83510000D03*
D11*
X90350000Y-91450000D03*
X85750000Y-91450000D03*
D12*
X97160000Y-79800000D03*
X95840000Y-79800000D03*
X103160000Y-79800000D03*
X101840000Y-79800000D03*
X106160000Y-79800000D03*
X104840000Y-79800000D03*
X103160000Y-95200000D03*
X101840000Y-95200000D03*
X106160000Y-95200000D03*
X104840000Y-95200000D03*
D13*
X112800000Y-86300000D03*
X115600000Y-86300000D03*
X115600000Y-88800000D03*
X112800000Y-88800000D03*
X112800000Y-91300000D03*
X115600000Y-91300000D03*
X115600000Y-93600000D03*
X112800000Y-93600000D03*
D14*
X103750000Y-93168000D03*
X103250000Y-93168000D03*
X102750000Y-93168000D03*
X102250000Y-93168000D03*
X101750000Y-93168000D03*
X101250000Y-93168000D03*
X100750000Y-93168000D03*
X100250000Y-93168000D03*
X99750000Y-93168000D03*
X99250000Y-93168000D03*
X98750000Y-93168000D03*
X98250000Y-93168000D03*
X97750000Y-93168000D03*
X97250000Y-93168000D03*
X96750000Y-93168000D03*
X96250000Y-93168000D03*
D15*
X94262000Y-91180000D03*
X94262000Y-90680000D03*
X94262000Y-90180000D03*
X94262000Y-89680000D03*
X94262000Y-89180000D03*
X94262000Y-88680000D03*
X94262000Y-88180000D03*
X94262000Y-87680000D03*
X94262000Y-87180000D03*
X94262000Y-86680000D03*
X94262000Y-86180000D03*
X94262000Y-85680000D03*
X94262000Y-85180000D03*
X94262000Y-84680000D03*
X94262000Y-84180000D03*
X94262000Y-83680000D03*
D14*
X96250000Y-81692000D03*
X96750000Y-81692000D03*
X97250000Y-81692000D03*
X97750000Y-81692000D03*
X98250000Y-81692000D03*
X98750000Y-81692000D03*
X99250000Y-81692000D03*
X99750000Y-81692000D03*
X100250000Y-81692000D03*
X100750000Y-81692000D03*
X101250000Y-81692000D03*
X101750000Y-81692000D03*
X102250000Y-81692000D03*
X102750000Y-81692000D03*
X103250000Y-81692000D03*
X103750000Y-81692000D03*
D15*
X105738000Y-83680000D03*
X105738000Y-84180000D03*
X105738000Y-84680000D03*
X105738000Y-85180000D03*
X105738000Y-85680000D03*
X105738000Y-86180000D03*
X105738000Y-86680000D03*
X105738000Y-87180000D03*
X105738000Y-87680000D03*
X105738000Y-88180000D03*
X105738000Y-88680000D03*
X105738000Y-89180000D03*
X105738000Y-89680000D03*
X105738000Y-90180000D03*
X105738000Y-90680000D03*
X105738000Y-91180000D03*
D16*
X115332000Y-80095000D03*
X115332000Y-81365000D03*
X115332000Y-82635000D03*
X115332000Y-83905000D03*
X108268000Y-83905000D03*
X108268000Y-82635000D03*
X108268000Y-81365000D03*
X108268000Y-80095000D03*
D17*
X91750000Y-79950000D03*
X91750000Y-81850000D03*
X89250000Y-81850000D03*
X89250000Y-80900000D03*
X89250000Y-79950000D03*
D18*
X84500000Y-81450000D03*
X84500000Y-80800000D03*
X84500000Y-80150000D03*
X86500000Y-80150000D03*
X86500000Y-80800000D03*
X86500000Y-81450000D03*
D19*
X81400000Y-86130000D03*
X81400000Y-86780000D03*
X81400000Y-87430000D03*
X81400000Y-88080000D03*
X81400000Y-88730000D03*
D20*
X78250000Y-81500000D03*
X79750000Y-81500000D03*
X79750000Y-93360000D03*
X78250000Y-93360000D03*
D21*
X82000000Y-81500000D03*
X82000000Y-79900000D03*
X82000000Y-94960000D03*
X82000000Y-93360000D03*
D22*
X95700000Y-95200000D03*
X97300000Y-95200000D03*
D23*
X118225000Y-84875000D03*
X118225000Y-80725000D03*
X120375000Y-84875000D03*
X120375000Y-80725000D03*
X120375000Y-89425000D03*
X120375000Y-93575000D03*
X118225000Y-89425000D03*
X118225000Y-93575000D03*
D24*
X108650000Y-88850000D03*
X108650000Y-86550000D03*
X110550000Y-86550000D03*
X110550000Y-88850000D03*
D25*
X109400000Y-91725000D03*
X109400000Y-94275000D03*
M02*
