G04 #@! TF.GenerationSoftware,KiCad,Pcbnew,5.1.5-52549c5~84~ubuntu18.04.1*
G04 #@! TF.CreationDate,2019-12-30T17:09:38-05:00*
G04 #@! TF.ProjectId,junebug,6a756e65-6275-4672-9e6b-696361645f70,rev?*
G04 #@! TF.SameCoordinates,Original*
G04 #@! TF.FileFunction,Copper,L1,Top*
G04 #@! TF.FilePolarity,Positive*
%FSLAX46Y46*%
G04 Gerber Fmt 4.6, Leading zero omitted, Abs format (unit mm)*
G04 Created by KiCad (PCBNEW 5.1.5-52549c5~84~ubuntu18.04.1) date 2019-12-30 17:09:38*
%MOMM*%
%LPD*%
G04 APERTURE LIST*
%ADD10C,1.540000*%
%ADD11C,3.000000*%
%ADD12R,1.820000X1.130000*%
%ADD13R,2.300000X6.400000*%
%ADD14R,0.830000X0.940000*%
%ADD15R,0.990000X1.780000*%
%ADD16R,0.300000X1.475000*%
%ADD17R,1.475000X0.300000*%
%ADD18R,1.785000X0.650000*%
%ADD19R,1.200000X0.600000*%
%ADD20R,1.000000X0.400000*%
%ADD21R,1.300000X0.450000*%
%ADD22O,2.000000X1.450000*%
%ADD23O,1.800000X1.150000*%
%ADD24R,1.250000X0.750000*%
%ADD25R,0.950000X0.800000*%
%ADD26R,0.800000X0.950000*%
%ADD27R,0.650000X1.050000*%
%ADD28R,1.100000X1.300000*%
%ADD29R,1.800000X1.000000*%
%ADD30C,0.685800*%
%ADD31C,0.152400*%
G04 APERTURE END LIST*
D10*
X125530000Y-93780000D03*
X122990000Y-93780000D03*
X125530000Y-91240000D03*
X122990000Y-91240000D03*
X125530000Y-88700000D03*
X122990000Y-88700000D03*
X125530000Y-86160000D03*
X122990000Y-86160000D03*
X125530000Y-83620000D03*
X122990000Y-83620000D03*
X125530000Y-81080000D03*
X122990000Y-81080000D03*
D11*
X124260000Y-96320000D03*
X78540000Y-96320000D03*
X124260000Y-78540000D03*
X78540000Y-78540000D03*
D12*
X84400000Y-83510000D03*
X84400000Y-86290000D03*
X86900000Y-86290000D03*
X86900000Y-83510000D03*
X89400000Y-83510000D03*
X89400000Y-86290000D03*
X91900000Y-86290000D03*
X91900000Y-83510000D03*
D13*
X90350000Y-91450000D03*
X85750000Y-91450000D03*
D14*
X97160000Y-79800000D03*
X95840000Y-79800000D03*
X103160000Y-79800000D03*
X101840000Y-79800000D03*
X106160000Y-79800000D03*
X104840000Y-79800000D03*
X103160000Y-95200000D03*
X101840000Y-95200000D03*
X106160000Y-95200000D03*
X104840000Y-95200000D03*
D15*
X112800000Y-86300000D03*
X115600000Y-86300000D03*
X115600000Y-88800000D03*
X112800000Y-88800000D03*
X112800000Y-91300000D03*
X115600000Y-91300000D03*
X115600000Y-93600000D03*
X112800000Y-93600000D03*
D16*
X103750000Y-93168000D03*
X103250000Y-93168000D03*
X102750000Y-93168000D03*
X102250000Y-93168000D03*
X101750000Y-93168000D03*
X101250000Y-93168000D03*
X100750000Y-93168000D03*
X100250000Y-93168000D03*
X99750000Y-93168000D03*
X99250000Y-93168000D03*
X98750000Y-93168000D03*
X98250000Y-93168000D03*
X97750000Y-93168000D03*
X97250000Y-93168000D03*
X96750000Y-93168000D03*
X96250000Y-93168000D03*
D17*
X94262000Y-91180000D03*
X94262000Y-90680000D03*
X94262000Y-90180000D03*
X94262000Y-89680000D03*
X94262000Y-89180000D03*
X94262000Y-88680000D03*
X94262000Y-88180000D03*
X94262000Y-87680000D03*
X94262000Y-87180000D03*
X94262000Y-86680000D03*
X94262000Y-86180000D03*
X94262000Y-85680000D03*
X94262000Y-85180000D03*
X94262000Y-84680000D03*
X94262000Y-84180000D03*
X94262000Y-83680000D03*
D16*
X96250000Y-81692000D03*
X96750000Y-81692000D03*
X97250000Y-81692000D03*
X97750000Y-81692000D03*
X98250000Y-81692000D03*
X98750000Y-81692000D03*
X99250000Y-81692000D03*
X99750000Y-81692000D03*
X100250000Y-81692000D03*
X100750000Y-81692000D03*
X101250000Y-81692000D03*
X101750000Y-81692000D03*
X102250000Y-81692000D03*
X102750000Y-81692000D03*
X103250000Y-81692000D03*
X103750000Y-81692000D03*
D17*
X105738000Y-83680000D03*
X105738000Y-84180000D03*
X105738000Y-84680000D03*
X105738000Y-85180000D03*
X105738000Y-85680000D03*
X105738000Y-86180000D03*
X105738000Y-86680000D03*
X105738000Y-87180000D03*
X105738000Y-87680000D03*
X105738000Y-88180000D03*
X105738000Y-88680000D03*
X105738000Y-89180000D03*
X105738000Y-89680000D03*
X105738000Y-90180000D03*
X105738000Y-90680000D03*
X105738000Y-91180000D03*
D18*
X115332000Y-80095000D03*
X115332000Y-81365000D03*
X115332000Y-82635000D03*
X115332000Y-83905000D03*
X108268000Y-83905000D03*
X108268000Y-82635000D03*
X108268000Y-81365000D03*
X108268000Y-80095000D03*
D19*
X91750000Y-79950000D03*
X91750000Y-81850000D03*
X89250000Y-81850000D03*
X89250000Y-80900000D03*
X89250000Y-79950000D03*
D20*
X84500000Y-81450000D03*
X84500000Y-80800000D03*
X84500000Y-80150000D03*
X86500000Y-80150000D03*
X86500000Y-80800000D03*
X86500000Y-81450000D03*
D21*
X81400000Y-86130000D03*
X81400000Y-86780000D03*
X81400000Y-87430000D03*
X81400000Y-88080000D03*
X81400000Y-88730000D03*
D22*
X81350000Y-83705000D03*
X81350000Y-91155000D03*
D23*
X77550000Y-83555000D03*
X77550000Y-91305000D03*
D10*
X82350000Y-77100000D03*
X84890000Y-77100000D03*
X87430000Y-77100000D03*
X89970000Y-77100000D03*
X92510000Y-77100000D03*
X95050000Y-77100000D03*
X97590000Y-77100000D03*
X100130000Y-77100000D03*
X102670000Y-77100000D03*
X105210000Y-77100000D03*
X107750000Y-77100000D03*
X110290000Y-77100000D03*
X112830000Y-77100000D03*
X115370000Y-77100000D03*
X117910000Y-77100000D03*
X120450000Y-77100000D03*
X120450000Y-97760000D03*
X117910000Y-97760000D03*
X115370000Y-97760000D03*
X112830000Y-97760000D03*
X110290000Y-97760000D03*
X107750000Y-97760000D03*
X105210000Y-97760000D03*
X102670000Y-97760000D03*
X100130000Y-97760000D03*
X97590000Y-97760000D03*
X95050000Y-97760000D03*
X92510000Y-97760000D03*
X89970000Y-97760000D03*
X87430000Y-97760000D03*
X84890000Y-97760000D03*
X82350000Y-97760000D03*
D24*
X78250000Y-81500000D03*
X79750000Y-81500000D03*
X79750000Y-93360000D03*
X78250000Y-93360000D03*
D25*
X82000000Y-81500000D03*
X82000000Y-79900000D03*
X82000000Y-94960000D03*
X82000000Y-93360000D03*
D26*
X95700000Y-95200000D03*
X97300000Y-95200000D03*
D27*
X118225000Y-84875000D03*
X118225000Y-80725000D03*
X120375000Y-84875000D03*
X120375000Y-80725000D03*
X120375000Y-89425000D03*
X120375000Y-93575000D03*
X118225000Y-89425000D03*
X118225000Y-93575000D03*
D28*
X108650000Y-88850000D03*
X108650000Y-86550000D03*
X110550000Y-86550000D03*
X110550000Y-88850000D03*
D29*
X109400000Y-91725000D03*
X109400000Y-94275000D03*
D30*
X84500000Y-79700000D03*
X89300000Y-79700000D03*
X91900000Y-86300000D03*
X89300000Y-80900000D03*
X89300000Y-86300000D03*
X95400000Y-90700000D03*
X95700000Y-95000000D03*
X97200000Y-79700000D03*
X103200000Y-79700000D03*
X91900000Y-79700000D03*
X91900000Y-83500000D03*
X94100000Y-92000000D03*
X95800000Y-79700000D03*
X103200000Y-95100000D03*
X107200000Y-95100000D03*
X104800000Y-79700000D03*
X90700000Y-92900000D03*
X98400000Y-90200000D03*
X86350000Y-95800000D03*
X91200000Y-95800000D03*
X96300000Y-96600000D03*
X103400000Y-91300000D03*
X102200000Y-90400000D03*
X105000000Y-93000000D03*
X113300000Y-96000000D03*
X100300000Y-94300000D03*
X101100000Y-91900000D03*
X99200000Y-94300000D03*
X98600000Y-88600000D03*
X112300000Y-79900000D03*
X112300000Y-83900000D03*
X97900000Y-88100000D03*
X111400000Y-83900000D03*
X111400000Y-79900000D03*
X97200000Y-87600000D03*
X110500000Y-83900000D03*
X87500000Y-88200000D03*
X87500000Y-93700000D03*
X95700000Y-93700000D03*
X88600000Y-88200000D03*
X88600000Y-91200000D03*
X92800000Y-91200000D03*
X83200000Y-88400000D03*
X95400000Y-89700000D03*
X83600000Y-87500000D03*
X92800000Y-89700000D03*
X82800000Y-89300000D03*
X95400000Y-88700000D03*
X90700000Y-84600000D03*
X92800000Y-88200000D03*
X78300000Y-93360000D03*
X85700000Y-87400000D03*
X78300000Y-81500000D03*
X85700000Y-85200000D03*
X93800000Y-81600000D03*
X95400000Y-84200000D03*
X94800000Y-81600000D03*
X96000000Y-83600000D03*
X98300000Y-79400000D03*
X108200000Y-79900000D03*
X97700000Y-83000000D03*
X115300000Y-82600000D03*
X98700000Y-83000000D03*
X115300000Y-83900000D03*
X99800000Y-80200000D03*
X108200000Y-81400000D03*
X99300000Y-89200000D03*
X100200000Y-89200000D03*
X100900000Y-83000000D03*
X108200000Y-82900000D03*
X100700000Y-80200000D03*
X115300000Y-81400000D03*
X100500000Y-87600000D03*
X114100000Y-96600000D03*
X101300000Y-87200000D03*
X102100000Y-86800000D03*
X102380000Y-83000000D03*
X105800000Y-83000000D03*
X96600000Y-84200000D03*
X104600000Y-84200000D03*
X96000000Y-84800000D03*
X107100000Y-84800000D03*
X100200000Y-90200000D03*
X99300000Y-90200000D03*
X104500000Y-87400000D03*
X107100000Y-86300000D03*
X107100000Y-90900000D03*
X113200000Y-83900000D03*
D31*
X84500000Y-80150000D02*
X84500000Y-80800000D01*
X84500000Y-80800000D02*
X84500000Y-81450000D01*
X84500000Y-79700000D02*
X84500000Y-80150000D01*
X90115685Y-79950000D02*
X90100000Y-79950000D01*
X90175001Y-80009316D02*
X90115685Y-79950000D01*
X90175001Y-81774999D02*
X90175001Y-80009316D01*
X90100000Y-81850000D02*
X90175001Y-81774999D01*
X89250000Y-81850000D02*
X90100000Y-81850000D01*
X89300000Y-79900000D02*
X89250000Y-79950000D01*
X89300000Y-79700000D02*
X89300000Y-79900000D01*
X95050000Y-77100000D02*
X93954999Y-78195001D01*
X90100000Y-79950000D02*
X89250000Y-79950000D01*
X92051409Y-78195001D02*
X90296410Y-79950000D01*
X90296410Y-79950000D02*
X90100000Y-79950000D01*
X93954999Y-78195001D02*
X92051409Y-78195001D01*
X89250000Y-79950000D02*
X88888518Y-79950000D01*
X87630000Y-81431482D02*
X87630000Y-81153000D01*
X87630000Y-81153000D02*
X87630000Y-81208518D01*
X88888518Y-79950000D02*
X87630000Y-81153000D01*
X86816292Y-82245190D02*
X87630000Y-81431482D01*
X84400000Y-83510000D02*
X84745000Y-83510000D01*
X86009810Y-82245190D02*
X86816292Y-82245190D01*
X84745000Y-83510000D02*
X86009810Y-82245190D01*
X81400000Y-89205000D02*
X81400000Y-88730000D01*
X83645000Y-91450000D02*
X81400000Y-89205000D01*
X85750000Y-91450000D02*
X83645000Y-91450000D01*
X82000000Y-94960000D02*
X84110000Y-94960000D01*
X84110000Y-94960000D02*
X85750000Y-93320000D01*
X82025000Y-79900000D02*
X82000000Y-79900000D01*
X83729999Y-78195001D02*
X82025000Y-79900000D01*
X87430000Y-77100000D02*
X86334999Y-78195001D01*
X86334999Y-78195001D02*
X83729999Y-78195001D01*
X91900000Y-86290000D02*
X89400000Y-86290000D01*
X89290000Y-86290000D02*
X89300000Y-86300000D01*
X86900000Y-86290000D02*
X89290000Y-86290000D01*
X96750000Y-80150000D02*
X97200000Y-79700000D01*
X96750000Y-81692000D02*
X96750000Y-80150000D01*
X103250000Y-79890000D02*
X103250000Y-81692000D01*
X103160000Y-79800000D02*
X103250000Y-79890000D01*
X103200000Y-79705000D02*
X103200000Y-79700000D01*
X104370588Y-85680000D02*
X103424989Y-84734401D01*
X104225001Y-80730001D02*
X103200000Y-79705000D01*
X105738000Y-85680000D02*
X104370588Y-85680000D01*
X103424989Y-84734401D02*
X103424989Y-83665599D01*
X103424989Y-83665599D02*
X104225001Y-82865587D01*
X104225001Y-82865587D02*
X104225001Y-80730001D01*
X101840000Y-95200000D02*
X101840000Y-95010000D01*
X113639999Y-85084999D02*
X114855000Y-86300000D01*
X113779999Y-87515001D02*
X114935000Y-86360000D01*
X114855000Y-86300000D02*
X114935000Y-86360000D01*
X114935000Y-86360000D02*
X115600000Y-86300000D01*
X113570001Y-90084999D02*
X109769999Y-90084999D01*
X115600000Y-88800000D02*
X114855000Y-88800000D01*
X114855000Y-88800000D02*
X113570001Y-90084999D01*
X115600000Y-93600000D02*
X115600000Y-91300000D01*
X115600000Y-91300000D02*
X115600000Y-88800000D01*
X115600000Y-88800000D02*
X115600000Y-86300000D01*
X120375000Y-89425000D02*
X120375000Y-93575000D01*
X116345000Y-88800000D02*
X115600000Y-88800000D01*
X116570001Y-88574999D02*
X116345000Y-88800000D01*
X107735498Y-83905000D02*
X108268000Y-83905000D01*
X106160000Y-79800000D02*
X106160000Y-82329502D01*
X106160000Y-82329502D02*
X107735498Y-83905000D01*
X89970000Y-97760000D02*
X88730000Y-96520000D01*
X88730000Y-96520000D02*
X86741000Y-96520000D01*
X86741000Y-96520000D02*
X86614000Y-96520000D01*
X85750000Y-96045822D02*
X86224178Y-96520000D01*
X85750000Y-91450000D02*
X85750000Y-96045822D01*
X86274178Y-96520000D02*
X86487000Y-96520000D01*
X86224178Y-96520000D02*
X86487000Y-96520000D01*
X86487000Y-96520000D02*
X86741000Y-96520000D01*
X95380000Y-90680000D02*
X95400000Y-90700000D01*
X94262000Y-90680000D02*
X95380000Y-90680000D01*
X84400000Y-87007400D02*
X84400000Y-86290000D01*
X84400000Y-88050000D02*
X84400000Y-87007400D01*
X85750000Y-89400000D02*
X84400000Y-88050000D01*
X85750000Y-91450000D02*
X85750000Y-89400000D01*
X85462400Y-86290000D02*
X86900000Y-86290000D01*
X84400000Y-86290000D02*
X85462400Y-86290000D01*
X108268000Y-84477822D02*
X108268000Y-84382400D01*
X107065822Y-85680000D02*
X108268000Y-84477822D01*
X105738000Y-85680000D02*
X107065822Y-85680000D01*
X108268000Y-84382400D02*
X108268000Y-83905000D01*
X108875177Y-85084999D02*
X108268000Y-84477822D01*
X113639999Y-85084999D02*
X108875177Y-85084999D01*
X108650000Y-88850000D02*
X108650000Y-88965000D01*
X108650000Y-88965000D02*
X109769999Y-90084999D01*
X110550000Y-86550000D02*
X110553000Y-86550000D01*
X111518001Y-87515001D02*
X113779999Y-87515001D01*
X110553000Y-86550000D02*
X111518001Y-87515001D01*
X101840000Y-95137000D02*
X101840000Y-95200000D01*
X101840000Y-95137000D02*
X102743000Y-94234000D01*
X103073900Y-94234000D02*
X103250000Y-94057900D01*
X103250000Y-94057900D02*
X103250000Y-93168000D01*
X102743000Y-94234000D02*
X103073900Y-94234000D01*
X101840000Y-95363000D02*
X101840000Y-95200000D01*
X104840000Y-95200000D02*
X104840000Y-95312000D01*
X101840000Y-95363000D02*
X102489000Y-96012000D01*
X104840000Y-95312000D02*
X104140000Y-96012000D01*
X104140000Y-96012000D02*
X102489000Y-96012000D01*
X95708000Y-95200000D02*
X95700000Y-95200000D01*
X96520000Y-96012000D02*
X95708000Y-95200000D01*
X101092000Y-96012000D02*
X96520000Y-96012000D01*
X101840000Y-95200000D02*
X101840000Y-95264000D01*
X101840000Y-95264000D02*
X101092000Y-96012000D01*
X120375000Y-89425000D02*
X120375000Y-89260000D01*
X119689999Y-88574999D02*
X116570001Y-88574999D01*
X120375000Y-89260000D02*
X119689999Y-88574999D01*
X89400000Y-83510000D02*
X86900000Y-83510000D01*
X91900000Y-79700000D02*
X90625010Y-80974990D01*
X90625010Y-80974990D02*
X90625010Y-81961400D01*
X84890000Y-97760000D02*
X87430000Y-97760000D01*
X96250000Y-80150000D02*
X95800000Y-79700000D01*
X96250000Y-81692000D02*
X96250000Y-80150000D01*
X103874999Y-84548001D02*
X104506998Y-85180000D01*
X103874999Y-83851999D02*
X103874999Y-84548001D01*
X104506998Y-85180000D02*
X105738000Y-85180000D01*
X104800000Y-79700000D02*
X104800000Y-82926998D01*
X104800000Y-82926998D02*
X103874999Y-83851999D01*
X103750000Y-94450000D02*
X103200000Y-95000000D01*
X103750000Y-93168000D02*
X103750000Y-94450000D01*
X118225000Y-84875000D02*
X118225000Y-80725000D01*
X116474500Y-80095000D02*
X115332000Y-80095000D01*
X117650000Y-80725000D02*
X117020000Y-80095000D01*
X117020000Y-80095000D02*
X116474500Y-80095000D01*
X118225000Y-80725000D02*
X117650000Y-80725000D01*
X94262000Y-91838000D02*
X94100000Y-92000000D01*
X94262000Y-91180000D02*
X94262000Y-91838000D01*
X86900000Y-82792600D02*
X87142600Y-82550000D01*
X86900000Y-83510000D02*
X86900000Y-82792600D01*
X90625010Y-81961400D02*
X90043000Y-82550000D01*
X87142600Y-82550000D02*
X90043000Y-82550000D01*
X90043000Y-82550000D02*
X90036410Y-82550000D01*
X89400000Y-83510000D02*
X91900000Y-83510000D01*
X102750000Y-80802100D02*
X102750000Y-81692000D01*
X101840000Y-79800000D02*
X101840000Y-79892100D01*
X101840000Y-79892100D02*
X102750000Y-80802100D01*
X101840000Y-79800000D02*
X101840000Y-79770000D01*
X101840000Y-79800000D02*
X101840000Y-79643000D01*
X101840000Y-79643000D02*
X102489000Y-78994000D01*
X104094000Y-78994000D02*
X102489000Y-78994000D01*
X104800000Y-79700000D02*
X104094000Y-78994000D01*
X105495001Y-79004999D02*
X104800000Y-79700000D01*
X108980501Y-79004999D02*
X105495001Y-79004999D01*
X114379998Y-84875000D02*
X114129999Y-84625001D01*
X118225000Y-84875000D02*
X114379998Y-84875000D01*
X114129999Y-84625001D02*
X110151999Y-84625001D01*
X110151999Y-84625001D02*
X109774999Y-84248001D01*
X109774999Y-84248001D02*
X109774999Y-79799497D01*
X109774999Y-79799497D02*
X108980501Y-79004999D01*
X107650011Y-95550011D02*
X107599999Y-95499999D01*
X110746401Y-95550011D02*
X107650011Y-95550011D01*
X118225000Y-85078000D02*
X121025001Y-87878001D01*
X121025001Y-94360001D02*
X120110003Y-95274999D01*
X107599999Y-95499999D02*
X107200000Y-95100000D01*
X118225000Y-84875000D02*
X118225000Y-85078000D01*
X121025001Y-87878001D02*
X121025001Y-94360001D01*
X120110003Y-95274999D02*
X111021413Y-95274999D01*
X111021413Y-95274999D02*
X110746401Y-95550011D01*
X98742899Y-90542899D02*
X98400000Y-90200000D01*
X99276311Y-91076311D02*
X98742899Y-90542899D01*
X102369511Y-91076311D02*
X99276311Y-91076311D01*
X102717323Y-90728499D02*
X102369511Y-91076311D01*
X104232567Y-90728499D02*
X102717323Y-90728499D01*
X104684068Y-91180000D02*
X104232567Y-90728499D01*
X105738000Y-91180000D02*
X104684068Y-91180000D01*
X104420000Y-88180000D02*
X105738000Y-88180000D01*
X102200000Y-90400000D02*
X104420000Y-88180000D01*
X118225000Y-89425000D02*
X118225000Y-93575000D01*
X106160000Y-95255000D02*
X106160000Y-95200000D01*
X86834933Y-95800000D02*
X91200000Y-95800000D01*
X86350000Y-95800000D02*
X86834933Y-95800000D01*
X106160000Y-95200000D02*
X106160000Y-95389000D01*
X104949000Y-96600000D02*
X96300000Y-96600000D01*
X106160000Y-95389000D02*
X104949000Y-96600000D01*
X104145822Y-91300000D02*
X103884933Y-91300000D01*
X103884933Y-91300000D02*
X103400000Y-91300000D01*
X106160000Y-93314178D02*
X104145822Y-91300000D01*
X106160000Y-95200000D02*
X106160000Y-93314178D01*
X106160000Y-95145000D02*
X106160000Y-95200000D01*
X106776501Y-94528499D02*
X106160000Y-95145000D01*
X107668497Y-94528499D02*
X106776501Y-94528499D01*
X118225000Y-93738000D02*
X117138011Y-94824989D01*
X118225000Y-93575000D02*
X118225000Y-93738000D01*
X110560001Y-95100001D02*
X108239999Y-95100001D01*
X117138011Y-94824989D02*
X110835013Y-94824989D01*
X110835013Y-94824989D02*
X110560001Y-95100001D01*
X108239999Y-95100001D02*
X107668497Y-94528499D01*
X112055000Y-86300000D02*
X112800000Y-86300000D01*
X111329999Y-85574999D02*
X112055000Y-86300000D01*
X108650000Y-86550000D02*
X108528588Y-86550000D01*
X108650000Y-86550000D02*
X108650000Y-86295000D01*
X109370001Y-85574999D02*
X111329999Y-85574999D01*
X108650000Y-86295000D02*
X109370001Y-85574999D01*
X106520000Y-88680000D02*
X107950000Y-87250000D01*
X105738000Y-88680000D02*
X106520000Y-88680000D01*
X107950000Y-87250000D02*
X108650000Y-86550000D01*
X112750000Y-88850000D02*
X112800000Y-88800000D01*
X110550000Y-88850000D02*
X112750000Y-88850000D01*
X110550000Y-88850000D02*
X110550000Y-88750000D01*
X110313000Y-88850000D02*
X110550000Y-88850000D01*
X109434399Y-87971399D02*
X110313000Y-88850000D01*
X107836501Y-87971399D02*
X109434399Y-87971399D01*
X105738000Y-89180000D02*
X106627900Y-89180000D01*
X106627900Y-89180000D02*
X107836501Y-87971399D01*
X106725500Y-89680000D02*
X105738000Y-89680000D01*
X107589412Y-89680000D02*
X106725500Y-89680000D01*
X109400000Y-91490588D02*
X107589412Y-89680000D01*
X109400000Y-91725000D02*
X109400000Y-91490588D01*
X112375000Y-91725000D02*
X112800000Y-91300000D01*
X109400000Y-91725000D02*
X112375000Y-91725000D01*
X106725500Y-90180000D02*
X105738000Y-90180000D01*
X106730501Y-90174999D02*
X106725500Y-90180000D01*
X107448001Y-90174999D02*
X106730501Y-90174999D01*
X107825001Y-90551999D02*
X107448001Y-90174999D01*
X107825001Y-93100001D02*
X107825001Y-90551999D01*
X109000000Y-94275000D02*
X107825001Y-93100001D01*
X109400000Y-94275000D02*
X109000000Y-94275000D01*
X112125000Y-94275000D02*
X112800000Y-93600000D01*
X109400000Y-94275000D02*
X112125000Y-94275000D01*
X105000000Y-93000000D02*
X104105499Y-92105499D01*
X120375000Y-80725000D02*
X120375000Y-84875000D01*
X101922601Y-92105499D02*
X104105499Y-92105499D01*
X101750000Y-92278100D02*
X101922601Y-92105499D01*
X101750000Y-93168000D02*
X101750000Y-92278100D01*
X97950000Y-95200000D02*
X97300000Y-95200000D01*
X101750000Y-93966982D02*
X100516982Y-95200000D01*
X100516982Y-95200000D02*
X97950000Y-95200000D01*
X101750000Y-93168000D02*
X101750000Y-93966982D01*
X121475011Y-94546401D02*
X120146413Y-95874999D01*
X113425001Y-95874999D02*
X113300000Y-96000000D01*
X120146413Y-95874999D02*
X113425001Y-95874999D01*
X121475011Y-86169011D02*
X121475011Y-94546401D01*
X120375000Y-84875000D02*
X120375000Y-85069000D01*
X120375000Y-85069000D02*
X121475011Y-86169011D01*
X100250000Y-94250000D02*
X100250000Y-93168000D01*
X100300000Y-94300000D02*
X100250000Y-94250000D01*
X99750000Y-92180500D02*
X99750000Y-93168000D01*
X100030500Y-91900000D02*
X99750000Y-92180500D01*
X101100000Y-91900000D02*
X100030500Y-91900000D01*
X99250000Y-94250000D02*
X99250000Y-93168000D01*
X99200000Y-94300000D02*
X99250000Y-94250000D01*
X112300000Y-79900000D02*
X112300000Y-83900000D01*
X98257101Y-88942899D02*
X98600000Y-88600000D01*
X97828499Y-89371501D02*
X98257101Y-88942899D01*
X97828499Y-90474321D02*
X97828499Y-89371501D01*
X98750000Y-91395822D02*
X97828499Y-90474321D01*
X98750000Y-93168000D02*
X98750000Y-91395822D01*
X111400000Y-79900000D02*
X111400000Y-83900000D01*
X97557101Y-88442899D02*
X97900000Y-88100000D01*
X97523689Y-90600577D02*
X97523689Y-88476311D01*
X97523689Y-88476311D02*
X97557101Y-88442899D01*
X98250000Y-91326888D02*
X97523689Y-90600577D01*
X98250000Y-93168000D02*
X98250000Y-91326888D01*
X110500000Y-79430000D02*
X110500000Y-83900000D01*
X112830000Y-77100000D02*
X110500000Y-79430000D01*
X97200000Y-93118000D02*
X97250000Y-93168000D01*
X97200000Y-87600000D02*
X97200000Y-93118000D01*
X87500000Y-88200000D02*
X87500000Y-93700000D01*
X96232000Y-93168000D02*
X95700000Y-93700000D01*
X96250000Y-93168000D02*
X96232000Y-93168000D01*
X88600000Y-88200000D02*
X88600000Y-91200000D01*
X92800000Y-90715067D02*
X92800000Y-91200000D01*
X93335067Y-90180000D02*
X92800000Y-90715067D01*
X94262000Y-90180000D02*
X93335067Y-90180000D01*
X82230000Y-87430000D02*
X83200000Y-88400000D01*
X81400000Y-87430000D02*
X82230000Y-87430000D01*
X95380000Y-89680000D02*
X95400000Y-89700000D01*
X94262000Y-89680000D02*
X95380000Y-89680000D01*
X82880000Y-86780000D02*
X83600000Y-87500000D01*
X81400000Y-86780000D02*
X82880000Y-86780000D01*
X93320000Y-89180000D02*
X92800000Y-89700000D01*
X94262000Y-89180000D02*
X93320000Y-89180000D01*
X82064933Y-88080000D02*
X81400000Y-88080000D01*
X82800000Y-88815067D02*
X82064933Y-88080000D01*
X82800000Y-89300000D02*
X82800000Y-88815067D01*
X95380000Y-88680000D02*
X95400000Y-88700000D01*
X94262000Y-88680000D02*
X95380000Y-88680000D01*
X94242000Y-88200000D02*
X94262000Y-88180000D01*
X92820000Y-88180000D02*
X92800000Y-88200000D01*
X94262000Y-88180000D02*
X92820000Y-88180000D01*
X90215067Y-84600000D02*
X90700000Y-84600000D01*
X81400000Y-85752600D02*
X82552600Y-84600000D01*
X81400000Y-86130000D02*
X81400000Y-85752600D01*
X85611482Y-81450000D02*
X84765482Y-82296000D01*
X86500000Y-81450000D02*
X85611482Y-81450000D01*
X84765482Y-82296000D02*
X83439000Y-82296000D01*
X82578610Y-83156390D02*
X82578610Y-84553390D01*
X83439000Y-82296000D02*
X82578610Y-83156390D01*
X82578610Y-84553390D02*
X82550000Y-84582000D01*
X82552600Y-84600000D02*
X82550000Y-84582000D01*
X82550000Y-84582000D02*
X90215067Y-84600000D01*
X93148001Y-87474999D02*
X93353002Y-87680000D01*
X93353002Y-87680000D02*
X94262000Y-87680000D01*
X85774999Y-87474999D02*
X93148001Y-87474999D01*
X85700000Y-87400000D02*
X85774999Y-87474999D01*
X85720000Y-85180000D02*
X85700000Y-85200000D01*
X94262000Y-85180000D02*
X85720000Y-85180000D01*
X93800000Y-81034315D02*
X93800000Y-81600000D01*
X95308599Y-78224989D02*
X93800000Y-79733588D01*
X93800000Y-79733588D02*
X93800000Y-81034315D01*
X99005010Y-78224990D02*
X95308599Y-78224989D01*
X100130000Y-77100000D02*
X99005010Y-78224990D01*
X95380000Y-84180000D02*
X95400000Y-84200000D01*
X94262000Y-84180000D02*
X95380000Y-84180000D01*
X94800000Y-81034315D02*
X94800000Y-81600000D01*
X102670000Y-77100000D02*
X101574999Y-78195001D01*
X101574999Y-78195001D02*
X99785001Y-78195001D01*
X99785001Y-78195001D02*
X99305003Y-78674999D01*
X99305003Y-78674999D02*
X95494999Y-78674999D01*
X95494999Y-78674999D02*
X94800000Y-79369998D01*
X94800000Y-79369998D02*
X94800000Y-81034315D01*
X94342000Y-83600000D02*
X94262000Y-83680000D01*
X96000000Y-83600000D02*
X94342000Y-83600000D01*
X98300000Y-80130002D02*
X98300000Y-79965685D01*
X98300000Y-79965685D02*
X98300000Y-79400000D01*
X97835001Y-80595001D02*
X98300000Y-80130002D01*
X97250000Y-80719498D02*
X97374497Y-80595001D01*
X97374497Y-80595001D02*
X97835001Y-80595001D01*
X97250000Y-81692000D02*
X97250000Y-80719498D01*
X97750000Y-82950000D02*
X97700000Y-83000000D01*
X97750000Y-81692000D02*
X97750000Y-82950000D01*
X109520001Y-77869999D02*
X110290000Y-77100000D01*
X108890189Y-78499811D02*
X109520001Y-77869999D01*
X98250000Y-81692000D02*
X98250000Y-80893018D01*
X98250000Y-80893018D02*
X100643207Y-78499811D01*
X100643207Y-78499811D02*
X108890189Y-78499811D01*
X98750000Y-82950000D02*
X98700000Y-83000000D01*
X98750000Y-81692000D02*
X98750000Y-82950000D01*
X99250000Y-80750000D02*
X99800000Y-80200000D01*
X99250000Y-81692000D02*
X99250000Y-80750000D01*
X99300000Y-89200000D02*
X99325001Y-89174999D01*
X99300000Y-88715067D02*
X99300000Y-89200000D01*
X99300000Y-83245822D02*
X99300000Y-88715067D01*
X99750000Y-82795822D02*
X99300000Y-83245822D01*
X99750000Y-81692000D02*
X99750000Y-82795822D01*
X99857101Y-88857101D02*
X100200000Y-89200000D01*
X99857101Y-87036833D02*
X99857101Y-88857101D01*
X100250000Y-81692000D02*
X100250000Y-86643934D01*
X100250000Y-86643934D02*
X99857101Y-87036833D01*
X100750000Y-82850000D02*
X100750000Y-81692000D01*
X100900000Y-83000000D02*
X100750000Y-82850000D01*
X101250000Y-80750000D02*
X101250000Y-81692000D01*
X100700000Y-80200000D02*
X101250000Y-80750000D01*
X100500000Y-87600000D02*
X100500000Y-86825000D01*
X119290000Y-96600000D02*
X120450000Y-97760000D01*
X114100000Y-96600000D02*
X119290000Y-96600000D01*
X101750000Y-85575000D02*
X101600000Y-85725000D01*
X101750000Y-81692000D02*
X101750000Y-85575000D01*
X100500000Y-86825000D02*
X101600000Y-85725000D01*
X101600000Y-85725000D02*
X101649990Y-85675010D01*
X103750000Y-82704178D02*
X103750000Y-82679500D01*
X102825001Y-83629177D02*
X103750000Y-82704178D01*
X103750000Y-82679500D02*
X103750000Y-81692000D01*
X102216625Y-87542899D02*
X102825001Y-86934523D01*
X101642899Y-87542899D02*
X102216625Y-87542899D01*
X102825001Y-86934523D02*
X102825001Y-83629177D01*
X101300000Y-87200000D02*
X101642899Y-87542899D01*
X105800000Y-83618000D02*
X105738000Y-83680000D01*
X105800000Y-83000000D02*
X105800000Y-83618000D01*
X102100000Y-83280000D02*
X102380000Y-83000000D01*
X102100000Y-86800000D02*
X102100000Y-83280000D01*
X105718000Y-84200000D02*
X105738000Y-84180000D01*
X104600000Y-84200000D02*
X105718000Y-84200000D01*
X96600000Y-90776888D02*
X96600000Y-84684933D01*
X96600000Y-84684933D02*
X96600000Y-84200000D01*
X95050000Y-92326888D02*
X96600000Y-90776888D01*
X95050000Y-97760000D02*
X95050000Y-92326888D01*
X106980000Y-84680000D02*
X107100000Y-84800000D01*
X105738000Y-84680000D02*
X106980000Y-84680000D01*
X92510000Y-94435822D02*
X92510000Y-96671056D01*
X96000000Y-90945822D02*
X92510000Y-94435822D01*
X92510000Y-96671056D02*
X92510000Y-97760000D01*
X96000000Y-84800000D02*
X96000000Y-90945822D01*
X100542899Y-89857101D02*
X100200000Y-90200000D01*
X100542899Y-89853033D02*
X100542899Y-89857101D01*
X104215932Y-86180000D02*
X100542899Y-89853033D01*
X105738000Y-86180000D02*
X104215932Y-86180000D01*
X99642899Y-90542899D02*
X99300000Y-90200000D01*
X99871501Y-90771501D02*
X99642899Y-90542899D01*
X100474321Y-90771501D02*
X99871501Y-90771501D01*
X100771501Y-90474321D02*
X100474321Y-90771501D01*
X100771501Y-90282677D02*
X100771501Y-90474321D01*
X104374178Y-86680000D02*
X100771501Y-90282677D01*
X105738000Y-86680000D02*
X104374178Y-86680000D01*
X104720000Y-87180000D02*
X105738000Y-87180000D01*
X104500000Y-87400000D02*
X104720000Y-87180000D01*
X107100000Y-86865685D02*
X107100000Y-86300000D01*
X107100000Y-87305500D02*
X107100000Y-86865685D01*
X106725500Y-87680000D02*
X107100000Y-87305500D01*
X105738000Y-87680000D02*
X106725500Y-87680000D01*
X106880000Y-90680000D02*
X107100000Y-90900000D01*
X105738000Y-90680000D02*
X106880000Y-90680000D01*
X113200000Y-79270000D02*
X113200000Y-83900000D01*
X115370000Y-77100000D02*
X113200000Y-79270000D01*
X86920000Y-80150000D02*
X86500000Y-80150000D01*
X89970000Y-77100000D02*
X86920000Y-80150000D01*
X89085400Y-78867000D02*
X90805000Y-78867000D01*
X87152400Y-80800000D02*
X89085400Y-78867000D01*
X86500000Y-80800000D02*
X87152400Y-80800000D01*
X92510000Y-77100000D02*
X90805000Y-78867000D01*
X90805000Y-78867000D02*
X90743000Y-78867000D01*
X79750000Y-81500000D02*
X82000000Y-81500000D01*
X79750000Y-93360000D02*
X82000000Y-93360000D01*
M02*
