G04 #@! TF.GenerationSoftware,KiCad,Pcbnew,5.1.5-52549c5~84~ubuntu18.04.1*
G04 #@! TF.CreationDate,2019-12-30T17:09:38-05:00*
G04 #@! TF.ProjectId,junebug,6a756e65-6275-4672-9e6b-696361645f70,rev?*
G04 #@! TF.SameCoordinates,Original*
G04 #@! TF.FileFunction,Legend,Top*
G04 #@! TF.FilePolarity,Positive*
%FSLAX46Y46*%
G04 Gerber Fmt 4.6, Leading zero omitted, Abs format (unit mm)*
G04 Created by KiCad (PCBNEW 5.1.5-52549c5~84~ubuntu18.04.1) date 2019-12-30 17:09:38*
%MOMM*%
%LPD*%
G04 APERTURE LIST*
%ADD10C,0.100000*%
%ADD11C,0.200000*%
%ADD12C,0.250000*%
%ADD13C,0.150000*%
G04 APERTURE END LIST*
D10*
X118995238Y-91661904D02*
X119052380Y-91680952D01*
X119147619Y-91680952D01*
X119185714Y-91661904D01*
X119204761Y-91642857D01*
X119223809Y-91604761D01*
X119223809Y-91566666D01*
X119204761Y-91528571D01*
X119185714Y-91509523D01*
X119147619Y-91490476D01*
X119071428Y-91471428D01*
X119033333Y-91452380D01*
X119014285Y-91433333D01*
X118995238Y-91395238D01*
X118995238Y-91357142D01*
X119014285Y-91319047D01*
X119033333Y-91300000D01*
X119071428Y-91280952D01*
X119166666Y-91280952D01*
X119223809Y-91300000D01*
X119376190Y-91319047D02*
X119395238Y-91300000D01*
X119433333Y-91280952D01*
X119528571Y-91280952D01*
X119566666Y-91300000D01*
X119585714Y-91319047D01*
X119604761Y-91357142D01*
X119604761Y-91395238D01*
X119585714Y-91452380D01*
X119357142Y-91680952D01*
X119604761Y-91680952D01*
X118995238Y-82961904D02*
X119052380Y-82980952D01*
X119147619Y-82980952D01*
X119185714Y-82961904D01*
X119204761Y-82942857D01*
X119223809Y-82904761D01*
X119223809Y-82866666D01*
X119204761Y-82828571D01*
X119185714Y-82809523D01*
X119147619Y-82790476D01*
X119071428Y-82771428D01*
X119033333Y-82752380D01*
X119014285Y-82733333D01*
X118995238Y-82695238D01*
X118995238Y-82657142D01*
X119014285Y-82619047D01*
X119033333Y-82600000D01*
X119071428Y-82580952D01*
X119166666Y-82580952D01*
X119223809Y-82600000D01*
X119604761Y-82980952D02*
X119376190Y-82980952D01*
X119490476Y-82980952D02*
X119490476Y-82580952D01*
X119452380Y-82638095D01*
X119414285Y-82676190D01*
X119376190Y-82695238D01*
X113942857Y-93857142D02*
X113961904Y-93876190D01*
X113980952Y-93933333D01*
X113980952Y-93971428D01*
X113961904Y-94028571D01*
X113923809Y-94066666D01*
X113885714Y-94085714D01*
X113809523Y-94104761D01*
X113752380Y-94104761D01*
X113676190Y-94085714D01*
X113638095Y-94066666D01*
X113600000Y-94028571D01*
X113580952Y-93971428D01*
X113580952Y-93933333D01*
X113600000Y-93876190D01*
X113619047Y-93857142D01*
X113980952Y-93476190D02*
X113980952Y-93704761D01*
X113980952Y-93590476D02*
X113580952Y-93590476D01*
X113638095Y-93628571D01*
X113676190Y-93666666D01*
X113695238Y-93704761D01*
X113714285Y-93133333D02*
X113980952Y-93133333D01*
X113561904Y-93228571D02*
X113847619Y-93323809D01*
X113847619Y-93076190D01*
X113942857Y-91557142D02*
X113961904Y-91576190D01*
X113980952Y-91633333D01*
X113980952Y-91671428D01*
X113961904Y-91728571D01*
X113923809Y-91766666D01*
X113885714Y-91785714D01*
X113809523Y-91804761D01*
X113752380Y-91804761D01*
X113676190Y-91785714D01*
X113638095Y-91766666D01*
X113600000Y-91728571D01*
X113580952Y-91671428D01*
X113580952Y-91633333D01*
X113600000Y-91576190D01*
X113619047Y-91557142D01*
X113980952Y-91176190D02*
X113980952Y-91404761D01*
X113980952Y-91290476D02*
X113580952Y-91290476D01*
X113638095Y-91328571D01*
X113676190Y-91366666D01*
X113695238Y-91404761D01*
X113580952Y-91042857D02*
X113580952Y-90795238D01*
X113733333Y-90928571D01*
X113733333Y-90871428D01*
X113752380Y-90833333D01*
X113771428Y-90814285D01*
X113809523Y-90795238D01*
X113904761Y-90795238D01*
X113942857Y-90814285D01*
X113961904Y-90833333D01*
X113980952Y-90871428D01*
X113980952Y-90985714D01*
X113961904Y-91023809D01*
X113942857Y-91042857D01*
X113942857Y-89057142D02*
X113961904Y-89076190D01*
X113980952Y-89133333D01*
X113980952Y-89171428D01*
X113961904Y-89228571D01*
X113923809Y-89266666D01*
X113885714Y-89285714D01*
X113809523Y-89304761D01*
X113752380Y-89304761D01*
X113676190Y-89285714D01*
X113638095Y-89266666D01*
X113600000Y-89228571D01*
X113580952Y-89171428D01*
X113580952Y-89133333D01*
X113600000Y-89076190D01*
X113619047Y-89057142D01*
X113980952Y-88676190D02*
X113980952Y-88904761D01*
X113980952Y-88790476D02*
X113580952Y-88790476D01*
X113638095Y-88828571D01*
X113676190Y-88866666D01*
X113695238Y-88904761D01*
X113619047Y-88523809D02*
X113600000Y-88504761D01*
X113580952Y-88466666D01*
X113580952Y-88371428D01*
X113600000Y-88333333D01*
X113619047Y-88314285D01*
X113657142Y-88295238D01*
X113695238Y-88295238D01*
X113752380Y-88314285D01*
X113980952Y-88542857D01*
X113980952Y-88295238D01*
X113942857Y-86557142D02*
X113961904Y-86576190D01*
X113980952Y-86633333D01*
X113980952Y-86671428D01*
X113961904Y-86728571D01*
X113923809Y-86766666D01*
X113885714Y-86785714D01*
X113809523Y-86804761D01*
X113752380Y-86804761D01*
X113676190Y-86785714D01*
X113638095Y-86766666D01*
X113600000Y-86728571D01*
X113580952Y-86671428D01*
X113580952Y-86633333D01*
X113600000Y-86576190D01*
X113619047Y-86557142D01*
X113980952Y-86176190D02*
X113980952Y-86404761D01*
X113980952Y-86290476D02*
X113580952Y-86290476D01*
X113638095Y-86328571D01*
X113676190Y-86366666D01*
X113695238Y-86404761D01*
X113980952Y-85795238D02*
X113980952Y-86023809D01*
X113980952Y-85909523D02*
X113580952Y-85909523D01*
X113638095Y-85947619D01*
X113676190Y-85985714D01*
X113695238Y-86023809D01*
X111409523Y-82180952D02*
X111409523Y-81780952D01*
X111828571Y-82142857D02*
X111809523Y-82161904D01*
X111752380Y-82180952D01*
X111714285Y-82180952D01*
X111657142Y-82161904D01*
X111619047Y-82123809D01*
X111600000Y-82085714D01*
X111580952Y-82009523D01*
X111580952Y-81952380D01*
X111600000Y-81876190D01*
X111619047Y-81838095D01*
X111657142Y-81800000D01*
X111714285Y-81780952D01*
X111752380Y-81780952D01*
X111809523Y-81800000D01*
X111828571Y-81819047D01*
X111980952Y-81819047D02*
X112000000Y-81800000D01*
X112038095Y-81780952D01*
X112133333Y-81780952D01*
X112171428Y-81800000D01*
X112190476Y-81819047D01*
X112209523Y-81857142D01*
X112209523Y-81895238D01*
X112190476Y-81952380D01*
X111961904Y-82180952D01*
X112209523Y-82180952D01*
X109409523Y-87590476D02*
X109409523Y-87780952D01*
X109276190Y-87380952D02*
X109409523Y-87590476D01*
X109542857Y-87380952D01*
X109885714Y-87780952D02*
X109657142Y-87780952D01*
X109771428Y-87780952D02*
X109771428Y-87380952D01*
X109733333Y-87438095D01*
X109695238Y-87476190D01*
X109657142Y-87495238D01*
X109209523Y-92990476D02*
X109209523Y-93180952D01*
X109076190Y-92780952D02*
X109209523Y-92990476D01*
X109342857Y-92780952D01*
X109457142Y-92819047D02*
X109476190Y-92800000D01*
X109514285Y-92780952D01*
X109609523Y-92780952D01*
X109647619Y-92800000D01*
X109666666Y-92819047D01*
X109685714Y-92857142D01*
X109685714Y-92895238D01*
X109666666Y-92952380D01*
X109438095Y-93180952D01*
X109685714Y-93180952D01*
X105242857Y-94142857D02*
X105223809Y-94161904D01*
X105166666Y-94180952D01*
X105128571Y-94180952D01*
X105071428Y-94161904D01*
X105033333Y-94123809D01*
X105014285Y-94085714D01*
X104995238Y-94009523D01*
X104995238Y-93952380D01*
X105014285Y-93876190D01*
X105033333Y-93838095D01*
X105071428Y-93800000D01*
X105128571Y-93780952D01*
X105166666Y-93780952D01*
X105223809Y-93800000D01*
X105242857Y-93819047D01*
X105623809Y-94180952D02*
X105395238Y-94180952D01*
X105509523Y-94180952D02*
X105509523Y-93780952D01*
X105471428Y-93838095D01*
X105433333Y-93876190D01*
X105395238Y-93895238D01*
X105871428Y-93780952D02*
X105909523Y-93780952D01*
X105947619Y-93800000D01*
X105966666Y-93819047D01*
X105985714Y-93857142D01*
X106004761Y-93933333D01*
X106004761Y-94028571D01*
X105985714Y-94104761D01*
X105966666Y-94142857D01*
X105947619Y-94161904D01*
X105909523Y-94180952D01*
X105871428Y-94180952D01*
X105833333Y-94161904D01*
X105814285Y-94142857D01*
X105795238Y-94104761D01*
X105776190Y-94028571D01*
X105776190Y-93933333D01*
X105795238Y-93857142D01*
X105814285Y-93819047D01*
X105833333Y-93800000D01*
X105871428Y-93780952D01*
X100942857Y-95266666D02*
X100961904Y-95285714D01*
X100980952Y-95342857D01*
X100980952Y-95380952D01*
X100961904Y-95438095D01*
X100923809Y-95476190D01*
X100885714Y-95495238D01*
X100809523Y-95514285D01*
X100752380Y-95514285D01*
X100676190Y-95495238D01*
X100638095Y-95476190D01*
X100600000Y-95438095D01*
X100580952Y-95380952D01*
X100580952Y-95342857D01*
X100600000Y-95285714D01*
X100619047Y-95266666D01*
X100980952Y-95076190D02*
X100980952Y-95000000D01*
X100961904Y-94961904D01*
X100942857Y-94942857D01*
X100885714Y-94904761D01*
X100809523Y-94885714D01*
X100657142Y-94885714D01*
X100619047Y-94904761D01*
X100600000Y-94923809D01*
X100580952Y-94961904D01*
X100580952Y-95038095D01*
X100600000Y-95076190D01*
X100619047Y-95095238D01*
X100657142Y-95114285D01*
X100752380Y-95114285D01*
X100790476Y-95095238D01*
X100809523Y-95076190D01*
X100828571Y-95038095D01*
X100828571Y-94961904D01*
X100809523Y-94923809D01*
X100790476Y-94904761D01*
X100752380Y-94885714D01*
X105433333Y-81142857D02*
X105414285Y-81161904D01*
X105357142Y-81180952D01*
X105319047Y-81180952D01*
X105261904Y-81161904D01*
X105223809Y-81123809D01*
X105204761Y-81085714D01*
X105185714Y-81009523D01*
X105185714Y-80952380D01*
X105204761Y-80876190D01*
X105223809Y-80838095D01*
X105261904Y-80800000D01*
X105319047Y-80780952D01*
X105357142Y-80780952D01*
X105414285Y-80800000D01*
X105433333Y-80819047D01*
X105661904Y-80952380D02*
X105623809Y-80933333D01*
X105604761Y-80914285D01*
X105585714Y-80876190D01*
X105585714Y-80857142D01*
X105604761Y-80819047D01*
X105623809Y-80800000D01*
X105661904Y-80780952D01*
X105738095Y-80780952D01*
X105776190Y-80800000D01*
X105795238Y-80819047D01*
X105814285Y-80857142D01*
X105814285Y-80876190D01*
X105795238Y-80914285D01*
X105776190Y-80933333D01*
X105738095Y-80952380D01*
X105661904Y-80952380D01*
X105623809Y-80971428D01*
X105604761Y-80990476D01*
X105585714Y-81028571D01*
X105585714Y-81104761D01*
X105604761Y-81142857D01*
X105623809Y-81161904D01*
X105661904Y-81180952D01*
X105738095Y-81180952D01*
X105776190Y-81161904D01*
X105795238Y-81142857D01*
X105814285Y-81104761D01*
X105814285Y-81028571D01*
X105795238Y-80990476D01*
X105776190Y-80971428D01*
X105738095Y-80952380D01*
X100942857Y-79866666D02*
X100961904Y-79885714D01*
X100980952Y-79942857D01*
X100980952Y-79980952D01*
X100961904Y-80038095D01*
X100923809Y-80076190D01*
X100885714Y-80095238D01*
X100809523Y-80114285D01*
X100752380Y-80114285D01*
X100676190Y-80095238D01*
X100638095Y-80076190D01*
X100600000Y-80038095D01*
X100580952Y-79980952D01*
X100580952Y-79942857D01*
X100600000Y-79885714D01*
X100619047Y-79866666D01*
X100580952Y-79733333D02*
X100580952Y-79466666D01*
X100980952Y-79638095D01*
X94942857Y-79866666D02*
X94961904Y-79885714D01*
X94980952Y-79942857D01*
X94980952Y-79980952D01*
X94961904Y-80038095D01*
X94923809Y-80076190D01*
X94885714Y-80095238D01*
X94809523Y-80114285D01*
X94752380Y-80114285D01*
X94676190Y-80095238D01*
X94638095Y-80076190D01*
X94600000Y-80038095D01*
X94580952Y-79980952D01*
X94580952Y-79942857D01*
X94600000Y-79885714D01*
X94619047Y-79866666D01*
X94580952Y-79523809D02*
X94580952Y-79600000D01*
X94600000Y-79638095D01*
X94619047Y-79657142D01*
X94676190Y-79695238D01*
X94752380Y-79714285D01*
X94904761Y-79714285D01*
X94942857Y-79695238D01*
X94961904Y-79676190D01*
X94980952Y-79638095D01*
X94980952Y-79561904D01*
X94961904Y-79523809D01*
X94942857Y-79504761D01*
X94904761Y-79485714D01*
X94809523Y-79485714D01*
X94771428Y-79504761D01*
X94752380Y-79523809D01*
X94733333Y-79561904D01*
X94733333Y-79638095D01*
X94752380Y-79676190D01*
X94771428Y-79695238D01*
X94809523Y-79714285D01*
X99609523Y-87610952D02*
X99609523Y-87210952D01*
X100028571Y-87572857D02*
X100009523Y-87591904D01*
X99952380Y-87610952D01*
X99914285Y-87610952D01*
X99857142Y-87591904D01*
X99819047Y-87553809D01*
X99800000Y-87515714D01*
X99780952Y-87439523D01*
X99780952Y-87382380D01*
X99800000Y-87306190D01*
X99819047Y-87268095D01*
X99857142Y-87230000D01*
X99914285Y-87210952D01*
X99952380Y-87210952D01*
X100009523Y-87230000D01*
X100028571Y-87249047D01*
X100409523Y-87610952D02*
X100180952Y-87610952D01*
X100295238Y-87610952D02*
X100295238Y-87210952D01*
X100257142Y-87268095D01*
X100219047Y-87306190D01*
X100180952Y-87325238D01*
X94980952Y-95266666D02*
X94790476Y-95400000D01*
X94980952Y-95495238D02*
X94580952Y-95495238D01*
X94580952Y-95342857D01*
X94600000Y-95304761D01*
X94619047Y-95285714D01*
X94657142Y-95266666D01*
X94714285Y-95266666D01*
X94752380Y-95285714D01*
X94771428Y-95304761D01*
X94790476Y-95342857D01*
X94790476Y-95495238D01*
X94580952Y-95133333D02*
X94580952Y-94885714D01*
X94733333Y-95019047D01*
X94733333Y-94961904D01*
X94752380Y-94923809D01*
X94771428Y-94904761D01*
X94809523Y-94885714D01*
X94904761Y-94885714D01*
X94942857Y-94904761D01*
X94961904Y-94923809D01*
X94980952Y-94961904D01*
X94980952Y-95076190D01*
X94961904Y-95114285D01*
X94942857Y-95133333D01*
X87983333Y-91592857D02*
X87964285Y-91611904D01*
X87907142Y-91630952D01*
X87869047Y-91630952D01*
X87811904Y-91611904D01*
X87773809Y-91573809D01*
X87754761Y-91535714D01*
X87735714Y-91459523D01*
X87735714Y-91402380D01*
X87754761Y-91326190D01*
X87773809Y-91288095D01*
X87811904Y-91250000D01*
X87869047Y-91230952D01*
X87907142Y-91230952D01*
X87964285Y-91250000D01*
X87983333Y-91269047D01*
X88345238Y-91230952D02*
X88154761Y-91230952D01*
X88135714Y-91421428D01*
X88154761Y-91402380D01*
X88192857Y-91383333D01*
X88288095Y-91383333D01*
X88326190Y-91402380D01*
X88345238Y-91421428D01*
X88364285Y-91459523D01*
X88364285Y-91554761D01*
X88345238Y-91592857D01*
X88326190Y-91611904D01*
X88288095Y-91630952D01*
X88192857Y-91630952D01*
X88154761Y-91611904D01*
X88135714Y-91592857D01*
X91833333Y-84742857D02*
X91814285Y-84761904D01*
X91757142Y-84780952D01*
X91719047Y-84780952D01*
X91661904Y-84761904D01*
X91623809Y-84723809D01*
X91604761Y-84685714D01*
X91585714Y-84609523D01*
X91585714Y-84552380D01*
X91604761Y-84476190D01*
X91623809Y-84438095D01*
X91661904Y-84400000D01*
X91719047Y-84380952D01*
X91757142Y-84380952D01*
X91814285Y-84400000D01*
X91833333Y-84419047D01*
X92176190Y-84514285D02*
X92176190Y-84780952D01*
X92080952Y-84361904D02*
X91985714Y-84647619D01*
X92233333Y-84647619D01*
X89333333Y-84742857D02*
X89314285Y-84761904D01*
X89257142Y-84780952D01*
X89219047Y-84780952D01*
X89161904Y-84761904D01*
X89123809Y-84723809D01*
X89104761Y-84685714D01*
X89085714Y-84609523D01*
X89085714Y-84552380D01*
X89104761Y-84476190D01*
X89123809Y-84438095D01*
X89161904Y-84400000D01*
X89219047Y-84380952D01*
X89257142Y-84380952D01*
X89314285Y-84400000D01*
X89333333Y-84419047D01*
X89466666Y-84380952D02*
X89714285Y-84380952D01*
X89580952Y-84533333D01*
X89638095Y-84533333D01*
X89676190Y-84552380D01*
X89695238Y-84571428D01*
X89714285Y-84609523D01*
X89714285Y-84704761D01*
X89695238Y-84742857D01*
X89676190Y-84761904D01*
X89638095Y-84780952D01*
X89523809Y-84780952D01*
X89485714Y-84761904D01*
X89466666Y-84742857D01*
X86833333Y-84742857D02*
X86814285Y-84761904D01*
X86757142Y-84780952D01*
X86719047Y-84780952D01*
X86661904Y-84761904D01*
X86623809Y-84723809D01*
X86604761Y-84685714D01*
X86585714Y-84609523D01*
X86585714Y-84552380D01*
X86604761Y-84476190D01*
X86623809Y-84438095D01*
X86661904Y-84400000D01*
X86719047Y-84380952D01*
X86757142Y-84380952D01*
X86814285Y-84400000D01*
X86833333Y-84419047D01*
X86985714Y-84419047D02*
X87004761Y-84400000D01*
X87042857Y-84380952D01*
X87138095Y-84380952D01*
X87176190Y-84400000D01*
X87195238Y-84419047D01*
X87214285Y-84457142D01*
X87214285Y-84495238D01*
X87195238Y-84552380D01*
X86966666Y-84780952D01*
X87214285Y-84780952D01*
X84333333Y-84742857D02*
X84314285Y-84761904D01*
X84257142Y-84780952D01*
X84219047Y-84780952D01*
X84161904Y-84761904D01*
X84123809Y-84723809D01*
X84104761Y-84685714D01*
X84085714Y-84609523D01*
X84085714Y-84552380D01*
X84104761Y-84476190D01*
X84123809Y-84438095D01*
X84161904Y-84400000D01*
X84219047Y-84380952D01*
X84257142Y-84380952D01*
X84314285Y-84400000D01*
X84333333Y-84419047D01*
X84714285Y-84780952D02*
X84485714Y-84780952D01*
X84600000Y-84780952D02*
X84600000Y-84380952D01*
X84561904Y-84438095D01*
X84523809Y-84476190D01*
X84485714Y-84495238D01*
X91359523Y-81080952D02*
X91359523Y-80680952D01*
X91778571Y-81042857D02*
X91759523Y-81061904D01*
X91702380Y-81080952D01*
X91664285Y-81080952D01*
X91607142Y-81061904D01*
X91569047Y-81023809D01*
X91550000Y-80985714D01*
X91530952Y-80909523D01*
X91530952Y-80852380D01*
X91550000Y-80776190D01*
X91569047Y-80738095D01*
X91607142Y-80700000D01*
X91664285Y-80680952D01*
X91702380Y-80680952D01*
X91759523Y-80700000D01*
X91778571Y-80719047D01*
X91911904Y-80680952D02*
X92159523Y-80680952D01*
X92026190Y-80833333D01*
X92083333Y-80833333D01*
X92121428Y-80852380D01*
X92140476Y-80871428D01*
X92159523Y-80909523D01*
X92159523Y-81004761D01*
X92140476Y-81042857D01*
X92121428Y-81061904D01*
X92083333Y-81080952D01*
X91969047Y-81080952D01*
X91930952Y-81061904D01*
X91911904Y-81042857D01*
X85109523Y-79580952D02*
X85109523Y-79180952D01*
X85528571Y-79542857D02*
X85509523Y-79561904D01*
X85452380Y-79580952D01*
X85414285Y-79580952D01*
X85357142Y-79561904D01*
X85319047Y-79523809D01*
X85300000Y-79485714D01*
X85280952Y-79409523D01*
X85280952Y-79352380D01*
X85300000Y-79276190D01*
X85319047Y-79238095D01*
X85357142Y-79200000D01*
X85414285Y-79180952D01*
X85452380Y-79180952D01*
X85509523Y-79200000D01*
X85528571Y-79219047D01*
X85871428Y-79314285D02*
X85871428Y-79580952D01*
X85776190Y-79161904D02*
X85680952Y-79447619D01*
X85928571Y-79447619D01*
X78666666Y-87210952D02*
X78666666Y-87496666D01*
X78647619Y-87553809D01*
X78609523Y-87591904D01*
X78552380Y-87610952D01*
X78514285Y-87610952D01*
X79066666Y-87610952D02*
X78838095Y-87610952D01*
X78952380Y-87610952D02*
X78952380Y-87210952D01*
X78914285Y-87268095D01*
X78876190Y-87306190D01*
X78838095Y-87325238D01*
X80980952Y-94526666D02*
X80790476Y-94660000D01*
X80980952Y-94755238D02*
X80580952Y-94755238D01*
X80580952Y-94602857D01*
X80600000Y-94564761D01*
X80619047Y-94545714D01*
X80657142Y-94526666D01*
X80714285Y-94526666D01*
X80752380Y-94545714D01*
X80771428Y-94564761D01*
X80790476Y-94602857D01*
X80790476Y-94755238D01*
X80619047Y-94374285D02*
X80600000Y-94355238D01*
X80580952Y-94317142D01*
X80580952Y-94221904D01*
X80600000Y-94183809D01*
X80619047Y-94164761D01*
X80657142Y-94145714D01*
X80695238Y-94145714D01*
X80752380Y-94164761D01*
X80980952Y-94393333D01*
X80980952Y-94145714D01*
X80980952Y-79966666D02*
X80790476Y-80100000D01*
X80980952Y-80195238D02*
X80580952Y-80195238D01*
X80580952Y-80042857D01*
X80600000Y-80004761D01*
X80619047Y-79985714D01*
X80657142Y-79966666D01*
X80714285Y-79966666D01*
X80752380Y-79985714D01*
X80771428Y-80004761D01*
X80790476Y-80042857D01*
X80790476Y-80195238D01*
X80980952Y-79585714D02*
X80980952Y-79814285D01*
X80980952Y-79700000D02*
X80580952Y-79700000D01*
X80638095Y-79738095D01*
X80676190Y-79776190D01*
X80695238Y-79814285D01*
X76980952Y-93788571D02*
X76980952Y-93979047D01*
X76580952Y-93979047D01*
X76771428Y-93655238D02*
X76771428Y-93521904D01*
X76980952Y-93464761D02*
X76980952Y-93655238D01*
X76580952Y-93655238D01*
X76580952Y-93464761D01*
X76980952Y-93293333D02*
X76580952Y-93293333D01*
X76580952Y-93198095D01*
X76600000Y-93140952D01*
X76638095Y-93102857D01*
X76676190Y-93083809D01*
X76752380Y-93064761D01*
X76809523Y-93064761D01*
X76885714Y-93083809D01*
X76923809Y-93102857D01*
X76961904Y-93140952D01*
X76980952Y-93198095D01*
X76980952Y-93293333D01*
X76790476Y-92817142D02*
X76980952Y-92817142D01*
X76580952Y-92950476D02*
X76790476Y-92817142D01*
X76580952Y-92683809D01*
X76980952Y-81957142D02*
X76980952Y-82147619D01*
X76580952Y-82147619D01*
X76771428Y-81823809D02*
X76771428Y-81690476D01*
X76980952Y-81633333D02*
X76980952Y-81823809D01*
X76580952Y-81823809D01*
X76580952Y-81633333D01*
X76980952Y-81461904D02*
X76580952Y-81461904D01*
X76580952Y-81366666D01*
X76600000Y-81309523D01*
X76638095Y-81271428D01*
X76676190Y-81252380D01*
X76752380Y-81233333D01*
X76809523Y-81233333D01*
X76885714Y-81252380D01*
X76923809Y-81271428D01*
X76961904Y-81309523D01*
X76980952Y-81366666D01*
X76980952Y-81461904D01*
X76980952Y-80833333D02*
X76790476Y-80966666D01*
X76980952Y-81061904D02*
X76580952Y-81061904D01*
X76580952Y-80909523D01*
X76600000Y-80871428D01*
X76619047Y-80852380D01*
X76657142Y-80833333D01*
X76714285Y-80833333D01*
X76752380Y-80852380D01*
X76771428Y-80871428D01*
X76790476Y-80909523D01*
X76790476Y-81061904D01*
X120576190Y-96374285D02*
X120576190Y-96640952D01*
X120480952Y-96221904D02*
X120385714Y-96507619D01*
X120633333Y-96507619D01*
X117595238Y-96240952D02*
X117823809Y-96240952D01*
X117709523Y-96640952D02*
X117709523Y-96240952D01*
X117919047Y-96240952D02*
X118185714Y-96640952D01*
X118185714Y-96240952D02*
X117919047Y-96640952D01*
X115333333Y-96640952D02*
X115200000Y-96450476D01*
X115104761Y-96640952D02*
X115104761Y-96240952D01*
X115257142Y-96240952D01*
X115295238Y-96260000D01*
X115314285Y-96279047D01*
X115333333Y-96317142D01*
X115333333Y-96374285D01*
X115314285Y-96412380D01*
X115295238Y-96431428D01*
X115257142Y-96450476D01*
X115104761Y-96450476D01*
X115466666Y-96240952D02*
X115733333Y-96640952D01*
X115733333Y-96240952D02*
X115466666Y-96640952D01*
X112171428Y-96640952D02*
X112171428Y-96240952D01*
X112304761Y-96526666D01*
X112438095Y-96240952D01*
X112438095Y-96640952D01*
X112628571Y-96640952D02*
X112628571Y-96240952D01*
X112800000Y-96621904D02*
X112857142Y-96640952D01*
X112952380Y-96640952D01*
X112990476Y-96621904D01*
X113009523Y-96602857D01*
X113028571Y-96564761D01*
X113028571Y-96526666D01*
X113009523Y-96488571D01*
X112990476Y-96469523D01*
X112952380Y-96450476D01*
X112876190Y-96431428D01*
X112838095Y-96412380D01*
X112819047Y-96393333D01*
X112800000Y-96355238D01*
X112800000Y-96317142D01*
X112819047Y-96279047D01*
X112838095Y-96260000D01*
X112876190Y-96240952D01*
X112971428Y-96240952D01*
X113028571Y-96260000D01*
X113276190Y-96240952D02*
X113352380Y-96240952D01*
X113390476Y-96260000D01*
X113428571Y-96298095D01*
X113447619Y-96374285D01*
X113447619Y-96507619D01*
X113428571Y-96583809D01*
X113390476Y-96621904D01*
X113352380Y-96640952D01*
X113276190Y-96640952D01*
X113238095Y-96621904D01*
X113200000Y-96583809D01*
X113180952Y-96507619D01*
X113180952Y-96374285D01*
X113200000Y-96298095D01*
X113238095Y-96260000D01*
X113276190Y-96240952D01*
X109671428Y-96640952D02*
X109671428Y-96240952D01*
X109804761Y-96526666D01*
X109938095Y-96240952D01*
X109938095Y-96640952D01*
X110204761Y-96240952D02*
X110280952Y-96240952D01*
X110319047Y-96260000D01*
X110357142Y-96298095D01*
X110376190Y-96374285D01*
X110376190Y-96507619D01*
X110357142Y-96583809D01*
X110319047Y-96621904D01*
X110280952Y-96640952D01*
X110204761Y-96640952D01*
X110166666Y-96621904D01*
X110128571Y-96583809D01*
X110109523Y-96507619D01*
X110109523Y-96374285D01*
X110128571Y-96298095D01*
X110166666Y-96260000D01*
X110204761Y-96240952D01*
X110528571Y-96621904D02*
X110585714Y-96640952D01*
X110680952Y-96640952D01*
X110719047Y-96621904D01*
X110738095Y-96602857D01*
X110757142Y-96564761D01*
X110757142Y-96526666D01*
X110738095Y-96488571D01*
X110719047Y-96469523D01*
X110680952Y-96450476D01*
X110604761Y-96431428D01*
X110566666Y-96412380D01*
X110547619Y-96393333D01*
X110528571Y-96355238D01*
X110528571Y-96317142D01*
X110547619Y-96279047D01*
X110566666Y-96260000D01*
X110604761Y-96240952D01*
X110700000Y-96240952D01*
X110757142Y-96260000D01*
X110928571Y-96640952D02*
X110928571Y-96240952D01*
X107285714Y-96621904D02*
X107342857Y-96640952D01*
X107438095Y-96640952D01*
X107476190Y-96621904D01*
X107495238Y-96602857D01*
X107514285Y-96564761D01*
X107514285Y-96526666D01*
X107495238Y-96488571D01*
X107476190Y-96469523D01*
X107438095Y-96450476D01*
X107361904Y-96431428D01*
X107323809Y-96412380D01*
X107304761Y-96393333D01*
X107285714Y-96355238D01*
X107285714Y-96317142D01*
X107304761Y-96279047D01*
X107323809Y-96260000D01*
X107361904Y-96240952D01*
X107457142Y-96240952D01*
X107514285Y-96260000D01*
X107914285Y-96602857D02*
X107895238Y-96621904D01*
X107838095Y-96640952D01*
X107800000Y-96640952D01*
X107742857Y-96621904D01*
X107704761Y-96583809D01*
X107685714Y-96545714D01*
X107666666Y-96469523D01*
X107666666Y-96412380D01*
X107685714Y-96336190D01*
X107704761Y-96298095D01*
X107742857Y-96260000D01*
X107800000Y-96240952D01*
X107838095Y-96240952D01*
X107895238Y-96260000D01*
X107914285Y-96279047D01*
X108085714Y-96640952D02*
X108085714Y-96240952D01*
X108314285Y-96640952D02*
X108142857Y-96412380D01*
X108314285Y-96240952D02*
X108085714Y-96469523D01*
X104914285Y-96526666D02*
X105104761Y-96526666D01*
X104876190Y-96640952D02*
X105009523Y-96240952D01*
X105142857Y-96640952D01*
X105466666Y-96240952D02*
X105276190Y-96240952D01*
X105257142Y-96431428D01*
X105276190Y-96412380D01*
X105314285Y-96393333D01*
X105409523Y-96393333D01*
X105447619Y-96412380D01*
X105466666Y-96431428D01*
X105485714Y-96469523D01*
X105485714Y-96564761D01*
X105466666Y-96602857D01*
X105447619Y-96621904D01*
X105409523Y-96640952D01*
X105314285Y-96640952D01*
X105276190Y-96621904D01*
X105257142Y-96602857D01*
X102414285Y-96526666D02*
X102604761Y-96526666D01*
X102376190Y-96640952D02*
X102509523Y-96240952D01*
X102642857Y-96640952D01*
X102947619Y-96374285D02*
X102947619Y-96640952D01*
X102852380Y-96221904D02*
X102757142Y-96507619D01*
X103004761Y-96507619D01*
X99814285Y-96526666D02*
X100004761Y-96526666D01*
X99776190Y-96640952D02*
X99909523Y-96240952D01*
X100042857Y-96640952D01*
X100138095Y-96240952D02*
X100385714Y-96240952D01*
X100252380Y-96393333D01*
X100309523Y-96393333D01*
X100347619Y-96412380D01*
X100366666Y-96431428D01*
X100385714Y-96469523D01*
X100385714Y-96564761D01*
X100366666Y-96602857D01*
X100347619Y-96621904D01*
X100309523Y-96640952D01*
X100195238Y-96640952D01*
X100157142Y-96621904D01*
X100138095Y-96602857D01*
X97314285Y-96526666D02*
X97504761Y-96526666D01*
X97276190Y-96640952D02*
X97409523Y-96240952D01*
X97542857Y-96640952D01*
X97657142Y-96279047D02*
X97676190Y-96260000D01*
X97714285Y-96240952D01*
X97809523Y-96240952D01*
X97847619Y-96260000D01*
X97866666Y-96279047D01*
X97885714Y-96317142D01*
X97885714Y-96355238D01*
X97866666Y-96412380D01*
X97638095Y-96640952D01*
X97885714Y-96640952D01*
X94814285Y-96526666D02*
X95004761Y-96526666D01*
X94776190Y-96640952D02*
X94909523Y-96240952D01*
X95042857Y-96640952D01*
X95385714Y-96640952D02*
X95157142Y-96640952D01*
X95271428Y-96640952D02*
X95271428Y-96240952D01*
X95233333Y-96298095D01*
X95195238Y-96336190D01*
X95157142Y-96355238D01*
X92214285Y-96526666D02*
X92404761Y-96526666D01*
X92176190Y-96640952D02*
X92309523Y-96240952D01*
X92442857Y-96640952D01*
X92652380Y-96240952D02*
X92690476Y-96240952D01*
X92728571Y-96260000D01*
X92747619Y-96279047D01*
X92766666Y-96317142D01*
X92785714Y-96393333D01*
X92785714Y-96488571D01*
X92766666Y-96564761D01*
X92747619Y-96602857D01*
X92728571Y-96621904D01*
X92690476Y-96640952D01*
X92652380Y-96640952D01*
X92614285Y-96621904D01*
X92595238Y-96602857D01*
X92576190Y-96564761D01*
X92557142Y-96488571D01*
X92557142Y-96393333D01*
X92576190Y-96317142D01*
X92595238Y-96279047D01*
X92614285Y-96260000D01*
X92652380Y-96240952D01*
X89695238Y-96260000D02*
X89657142Y-96240952D01*
X89600000Y-96240952D01*
X89542857Y-96260000D01*
X89504761Y-96298095D01*
X89485714Y-96336190D01*
X89466666Y-96412380D01*
X89466666Y-96469523D01*
X89485714Y-96545714D01*
X89504761Y-96583809D01*
X89542857Y-96621904D01*
X89600000Y-96640952D01*
X89638095Y-96640952D01*
X89695238Y-96621904D01*
X89714285Y-96602857D01*
X89714285Y-96469523D01*
X89638095Y-96469523D01*
X89885714Y-96640952D02*
X89885714Y-96240952D01*
X90114285Y-96640952D01*
X90114285Y-96240952D01*
X90304761Y-96640952D02*
X90304761Y-96240952D01*
X90400000Y-96240952D01*
X90457142Y-96260000D01*
X90495238Y-96298095D01*
X90514285Y-96336190D01*
X90533333Y-96412380D01*
X90533333Y-96469523D01*
X90514285Y-96545714D01*
X90495238Y-96583809D01*
X90457142Y-96621904D01*
X90400000Y-96640952D01*
X90304761Y-96640952D01*
X86752380Y-96526666D02*
X86942857Y-96526666D01*
X86714285Y-96640952D02*
X86847619Y-96240952D01*
X86980952Y-96640952D01*
X87342857Y-96640952D02*
X87209523Y-96450476D01*
X87114285Y-96640952D02*
X87114285Y-96240952D01*
X87266666Y-96240952D01*
X87304761Y-96260000D01*
X87323809Y-96279047D01*
X87342857Y-96317142D01*
X87342857Y-96374285D01*
X87323809Y-96412380D01*
X87304761Y-96431428D01*
X87266666Y-96450476D01*
X87114285Y-96450476D01*
X87514285Y-96431428D02*
X87647619Y-96431428D01*
X87704761Y-96640952D02*
X87514285Y-96640952D01*
X87514285Y-96240952D01*
X87704761Y-96240952D01*
X88009523Y-96431428D02*
X87876190Y-96431428D01*
X87876190Y-96640952D02*
X87876190Y-96240952D01*
X88066666Y-96240952D01*
X84404761Y-96240952D02*
X84652380Y-96240952D01*
X84519047Y-96393333D01*
X84576190Y-96393333D01*
X84614285Y-96412380D01*
X84633333Y-96431428D01*
X84652380Y-96469523D01*
X84652380Y-96564761D01*
X84633333Y-96602857D01*
X84614285Y-96621904D01*
X84576190Y-96640952D01*
X84461904Y-96640952D01*
X84423809Y-96621904D01*
X84404761Y-96602857D01*
X84766666Y-96240952D02*
X84900000Y-96640952D01*
X85033333Y-96240952D01*
X85128571Y-96240952D02*
X85376190Y-96240952D01*
X85242857Y-96393333D01*
X85300000Y-96393333D01*
X85338095Y-96412380D01*
X85357142Y-96431428D01*
X85376190Y-96469523D01*
X85376190Y-96564761D01*
X85357142Y-96602857D01*
X85338095Y-96621904D01*
X85300000Y-96640952D01*
X85185714Y-96640952D01*
X85147619Y-96621904D01*
X85128571Y-96602857D01*
X81692857Y-96640952D02*
X81692857Y-96240952D01*
X81921428Y-96640952D01*
X81921428Y-96240952D01*
X82340476Y-96640952D02*
X82207142Y-96450476D01*
X82111904Y-96640952D02*
X82111904Y-96240952D01*
X82264285Y-96240952D01*
X82302380Y-96260000D01*
X82321428Y-96279047D01*
X82340476Y-96317142D01*
X82340476Y-96374285D01*
X82321428Y-96412380D01*
X82302380Y-96431428D01*
X82264285Y-96450476D01*
X82111904Y-96450476D01*
X82492857Y-96621904D02*
X82550000Y-96640952D01*
X82645238Y-96640952D01*
X82683333Y-96621904D01*
X82702380Y-96602857D01*
X82721428Y-96564761D01*
X82721428Y-96526666D01*
X82702380Y-96488571D01*
X82683333Y-96469523D01*
X82645238Y-96450476D01*
X82569047Y-96431428D01*
X82530952Y-96412380D01*
X82511904Y-96393333D01*
X82492857Y-96355238D01*
X82492857Y-96317142D01*
X82511904Y-96279047D01*
X82530952Y-96260000D01*
X82569047Y-96240952D01*
X82664285Y-96240952D01*
X82721428Y-96260000D01*
X82835714Y-96240952D02*
X83064285Y-96240952D01*
X82950000Y-96640952D02*
X82950000Y-96240952D01*
X120014285Y-78561904D02*
X120071428Y-78580952D01*
X120166666Y-78580952D01*
X120204761Y-78561904D01*
X120223809Y-78542857D01*
X120242857Y-78504761D01*
X120242857Y-78466666D01*
X120223809Y-78428571D01*
X120204761Y-78409523D01*
X120166666Y-78390476D01*
X120090476Y-78371428D01*
X120052380Y-78352380D01*
X120033333Y-78333333D01*
X120014285Y-78295238D01*
X120014285Y-78257142D01*
X120033333Y-78219047D01*
X120052380Y-78200000D01*
X120090476Y-78180952D01*
X120185714Y-78180952D01*
X120242857Y-78200000D01*
X120414285Y-78580952D02*
X120414285Y-78180952D01*
X120509523Y-78180952D01*
X120566666Y-78200000D01*
X120604761Y-78238095D01*
X120623809Y-78276190D01*
X120642857Y-78352380D01*
X120642857Y-78409523D01*
X120623809Y-78485714D01*
X120604761Y-78523809D01*
X120566666Y-78561904D01*
X120509523Y-78580952D01*
X120414285Y-78580952D01*
X120795238Y-78466666D02*
X120985714Y-78466666D01*
X120757142Y-78580952D02*
X120890476Y-78180952D01*
X121023809Y-78580952D01*
X117423809Y-78561904D02*
X117480952Y-78580952D01*
X117576190Y-78580952D01*
X117614285Y-78561904D01*
X117633333Y-78542857D01*
X117652380Y-78504761D01*
X117652380Y-78466666D01*
X117633333Y-78428571D01*
X117614285Y-78409523D01*
X117576190Y-78390476D01*
X117500000Y-78371428D01*
X117461904Y-78352380D01*
X117442857Y-78333333D01*
X117423809Y-78295238D01*
X117423809Y-78257142D01*
X117442857Y-78219047D01*
X117461904Y-78200000D01*
X117500000Y-78180952D01*
X117595238Y-78180952D01*
X117652380Y-78200000D01*
X118052380Y-78542857D02*
X118033333Y-78561904D01*
X117976190Y-78580952D01*
X117938095Y-78580952D01*
X117880952Y-78561904D01*
X117842857Y-78523809D01*
X117823809Y-78485714D01*
X117804761Y-78409523D01*
X117804761Y-78352380D01*
X117823809Y-78276190D01*
X117842857Y-78238095D01*
X117880952Y-78200000D01*
X117938095Y-78180952D01*
X117976190Y-78180952D01*
X118033333Y-78200000D01*
X118052380Y-78219047D01*
X118414285Y-78580952D02*
X118223809Y-78580952D01*
X118223809Y-78180952D01*
X115495238Y-78180952D02*
X115304761Y-78180952D01*
X115285714Y-78371428D01*
X115304761Y-78352380D01*
X115342857Y-78333333D01*
X115438095Y-78333333D01*
X115476190Y-78352380D01*
X115495238Y-78371428D01*
X115514285Y-78409523D01*
X115514285Y-78504761D01*
X115495238Y-78542857D01*
X115476190Y-78561904D01*
X115438095Y-78580952D01*
X115342857Y-78580952D01*
X115304761Y-78561904D01*
X115285714Y-78542857D01*
X112876190Y-78180952D02*
X112800000Y-78180952D01*
X112761904Y-78200000D01*
X112742857Y-78219047D01*
X112704761Y-78276190D01*
X112685714Y-78352380D01*
X112685714Y-78504761D01*
X112704761Y-78542857D01*
X112723809Y-78561904D01*
X112761904Y-78580952D01*
X112838095Y-78580952D01*
X112876190Y-78561904D01*
X112895238Y-78542857D01*
X112914285Y-78504761D01*
X112914285Y-78409523D01*
X112895238Y-78371428D01*
X112876190Y-78352380D01*
X112838095Y-78333333D01*
X112761904Y-78333333D01*
X112723809Y-78352380D01*
X112704761Y-78371428D01*
X112685714Y-78409523D01*
X110223809Y-78580952D02*
X110300000Y-78580952D01*
X110338095Y-78561904D01*
X110357142Y-78542857D01*
X110395238Y-78485714D01*
X110414285Y-78409523D01*
X110414285Y-78257142D01*
X110395238Y-78219047D01*
X110376190Y-78200000D01*
X110338095Y-78180952D01*
X110261904Y-78180952D01*
X110223809Y-78200000D01*
X110204761Y-78219047D01*
X110185714Y-78257142D01*
X110185714Y-78352380D01*
X110204761Y-78390476D01*
X110223809Y-78409523D01*
X110261904Y-78428571D01*
X110338095Y-78428571D01*
X110376190Y-78409523D01*
X110395238Y-78390476D01*
X110414285Y-78352380D01*
X107723809Y-78580952D02*
X107495238Y-78580952D01*
X107609523Y-78580952D02*
X107609523Y-78180952D01*
X107571428Y-78238095D01*
X107533333Y-78276190D01*
X107495238Y-78295238D01*
X107971428Y-78180952D02*
X108009523Y-78180952D01*
X108047619Y-78200000D01*
X108066666Y-78219047D01*
X108085714Y-78257142D01*
X108104761Y-78333333D01*
X108104761Y-78428571D01*
X108085714Y-78504761D01*
X108066666Y-78542857D01*
X108047619Y-78561904D01*
X108009523Y-78580952D01*
X107971428Y-78580952D01*
X107933333Y-78561904D01*
X107914285Y-78542857D01*
X107895238Y-78504761D01*
X107876190Y-78428571D01*
X107876190Y-78333333D01*
X107895238Y-78257142D01*
X107914285Y-78219047D01*
X107933333Y-78200000D01*
X107971428Y-78180952D01*
X105123809Y-78580952D02*
X104895238Y-78580952D01*
X105009523Y-78580952D02*
X105009523Y-78180952D01*
X104971428Y-78238095D01*
X104933333Y-78276190D01*
X104895238Y-78295238D01*
X105504761Y-78580952D02*
X105276190Y-78580952D01*
X105390476Y-78580952D02*
X105390476Y-78180952D01*
X105352380Y-78238095D01*
X105314285Y-78276190D01*
X105276190Y-78295238D01*
X102623809Y-78580952D02*
X102395238Y-78580952D01*
X102509523Y-78580952D02*
X102509523Y-78180952D01*
X102471428Y-78238095D01*
X102433333Y-78276190D01*
X102395238Y-78295238D01*
X102776190Y-78219047D02*
X102795238Y-78200000D01*
X102833333Y-78180952D01*
X102928571Y-78180952D01*
X102966666Y-78200000D01*
X102985714Y-78219047D01*
X103004761Y-78257142D01*
X103004761Y-78295238D01*
X102985714Y-78352380D01*
X102757142Y-78580952D01*
X103004761Y-78580952D01*
X100023809Y-78580952D02*
X99795238Y-78580952D01*
X99909523Y-78580952D02*
X99909523Y-78180952D01*
X99871428Y-78238095D01*
X99833333Y-78276190D01*
X99795238Y-78295238D01*
X100157142Y-78180952D02*
X100404761Y-78180952D01*
X100271428Y-78333333D01*
X100328571Y-78333333D01*
X100366666Y-78352380D01*
X100385714Y-78371428D01*
X100404761Y-78409523D01*
X100404761Y-78504761D01*
X100385714Y-78542857D01*
X100366666Y-78561904D01*
X100328571Y-78580952D01*
X100214285Y-78580952D01*
X100176190Y-78561904D01*
X100157142Y-78542857D01*
X96866666Y-78180952D02*
X97000000Y-78580952D01*
X97133333Y-78180952D01*
X97266666Y-78180952D02*
X97266666Y-78504761D01*
X97285714Y-78542857D01*
X97304761Y-78561904D01*
X97342857Y-78580952D01*
X97419047Y-78580952D01*
X97457142Y-78561904D01*
X97476190Y-78542857D01*
X97495238Y-78504761D01*
X97495238Y-78180952D01*
X97666666Y-78561904D02*
X97723809Y-78580952D01*
X97819047Y-78580952D01*
X97857142Y-78561904D01*
X97876190Y-78542857D01*
X97895238Y-78504761D01*
X97895238Y-78466666D01*
X97876190Y-78428571D01*
X97857142Y-78409523D01*
X97819047Y-78390476D01*
X97742857Y-78371428D01*
X97704761Y-78352380D01*
X97685714Y-78333333D01*
X97666666Y-78295238D01*
X97666666Y-78257142D01*
X97685714Y-78219047D01*
X97704761Y-78200000D01*
X97742857Y-78180952D01*
X97838095Y-78180952D01*
X97895238Y-78200000D01*
X98200000Y-78371428D02*
X98257142Y-78390476D01*
X98276190Y-78409523D01*
X98295238Y-78447619D01*
X98295238Y-78504761D01*
X98276190Y-78542857D01*
X98257142Y-78561904D01*
X98219047Y-78580952D01*
X98066666Y-78580952D01*
X98066666Y-78180952D01*
X98200000Y-78180952D01*
X98238095Y-78200000D01*
X98257142Y-78219047D01*
X98276190Y-78257142D01*
X98276190Y-78295238D01*
X98257142Y-78333333D01*
X98238095Y-78352380D01*
X98200000Y-78371428D01*
X98066666Y-78371428D01*
X94804761Y-78371428D02*
X94938095Y-78371428D01*
X94995238Y-78580952D02*
X94804761Y-78580952D01*
X94804761Y-78180952D01*
X94995238Y-78180952D01*
X95166666Y-78580952D02*
X95166666Y-78180952D01*
X95395238Y-78580952D01*
X95395238Y-78180952D01*
X91795238Y-78180952D02*
X91928571Y-78580952D01*
X92061904Y-78180952D01*
X92423809Y-78542857D02*
X92404761Y-78561904D01*
X92347619Y-78580952D01*
X92309523Y-78580952D01*
X92252380Y-78561904D01*
X92214285Y-78523809D01*
X92195238Y-78485714D01*
X92176190Y-78409523D01*
X92176190Y-78352380D01*
X92195238Y-78276190D01*
X92214285Y-78238095D01*
X92252380Y-78200000D01*
X92309523Y-78180952D01*
X92347619Y-78180952D01*
X92404761Y-78200000D01*
X92423809Y-78219047D01*
X92576190Y-78466666D02*
X92766666Y-78466666D01*
X92538095Y-78580952D02*
X92671428Y-78180952D01*
X92804761Y-78580952D01*
X92938095Y-78580952D02*
X92938095Y-78180952D01*
X93090476Y-78180952D01*
X93128571Y-78200000D01*
X93147619Y-78219047D01*
X93166666Y-78257142D01*
X93166666Y-78314285D01*
X93147619Y-78352380D01*
X93128571Y-78371428D01*
X93090476Y-78390476D01*
X92938095Y-78390476D01*
X89561904Y-78180952D02*
X89695238Y-78580952D01*
X89828571Y-78180952D01*
X89961904Y-78580952D02*
X89961904Y-78180952D01*
X90152380Y-78580952D02*
X90152380Y-78180952D01*
X90380952Y-78580952D01*
X90380952Y-78180952D01*
X87095238Y-78200000D02*
X87057142Y-78180952D01*
X87000000Y-78180952D01*
X86942857Y-78200000D01*
X86904761Y-78238095D01*
X86885714Y-78276190D01*
X86866666Y-78352380D01*
X86866666Y-78409523D01*
X86885714Y-78485714D01*
X86904761Y-78523809D01*
X86942857Y-78561904D01*
X87000000Y-78580952D01*
X87038095Y-78580952D01*
X87095238Y-78561904D01*
X87114285Y-78542857D01*
X87114285Y-78409523D01*
X87038095Y-78409523D01*
X87285714Y-78580952D02*
X87285714Y-78180952D01*
X87514285Y-78580952D01*
X87514285Y-78180952D01*
X87704761Y-78580952D02*
X87704761Y-78180952D01*
X87800000Y-78180952D01*
X87857142Y-78200000D01*
X87895238Y-78238095D01*
X87914285Y-78276190D01*
X87933333Y-78352380D01*
X87933333Y-78409523D01*
X87914285Y-78485714D01*
X87895238Y-78523809D01*
X87857142Y-78561904D01*
X87800000Y-78580952D01*
X87704761Y-78580952D01*
X84052380Y-78561904D02*
X84109523Y-78580952D01*
X84204761Y-78580952D01*
X84242857Y-78561904D01*
X84261904Y-78542857D01*
X84280952Y-78504761D01*
X84280952Y-78466666D01*
X84261904Y-78428571D01*
X84242857Y-78409523D01*
X84204761Y-78390476D01*
X84128571Y-78371428D01*
X84090476Y-78352380D01*
X84071428Y-78333333D01*
X84052380Y-78295238D01*
X84052380Y-78257142D01*
X84071428Y-78219047D01*
X84090476Y-78200000D01*
X84128571Y-78180952D01*
X84223809Y-78180952D01*
X84280952Y-78200000D01*
X84414285Y-78180952D02*
X84509523Y-78580952D01*
X84585714Y-78295238D01*
X84661904Y-78580952D01*
X84757142Y-78180952D01*
X84909523Y-78580952D02*
X84909523Y-78180952D01*
X85004761Y-78180952D01*
X85061904Y-78200000D01*
X85100000Y-78238095D01*
X85119047Y-78276190D01*
X85138095Y-78352380D01*
X85138095Y-78409523D01*
X85119047Y-78485714D01*
X85100000Y-78523809D01*
X85061904Y-78561904D01*
X85004761Y-78580952D01*
X84909523Y-78580952D01*
X85309523Y-78580952D02*
X85309523Y-78180952D01*
X85576190Y-78180952D02*
X85652380Y-78180952D01*
X85690476Y-78200000D01*
X85728571Y-78238095D01*
X85747619Y-78314285D01*
X85747619Y-78447619D01*
X85728571Y-78523809D01*
X85690476Y-78561904D01*
X85652380Y-78580952D01*
X85576190Y-78580952D01*
X85538095Y-78561904D01*
X85500000Y-78523809D01*
X85480952Y-78447619D01*
X85480952Y-78314285D01*
X85500000Y-78238095D01*
X85538095Y-78200000D01*
X85576190Y-78180952D01*
X81445238Y-78561904D02*
X81502380Y-78580952D01*
X81597619Y-78580952D01*
X81635714Y-78561904D01*
X81654761Y-78542857D01*
X81673809Y-78504761D01*
X81673809Y-78466666D01*
X81654761Y-78428571D01*
X81635714Y-78409523D01*
X81597619Y-78390476D01*
X81521428Y-78371428D01*
X81483333Y-78352380D01*
X81464285Y-78333333D01*
X81445238Y-78295238D01*
X81445238Y-78257142D01*
X81464285Y-78219047D01*
X81483333Y-78200000D01*
X81521428Y-78180952D01*
X81616666Y-78180952D01*
X81673809Y-78200000D01*
X81807142Y-78180952D02*
X81902380Y-78580952D01*
X81978571Y-78295238D01*
X82054761Y-78580952D01*
X82150000Y-78180952D01*
X82530952Y-78542857D02*
X82511904Y-78561904D01*
X82454761Y-78580952D01*
X82416666Y-78580952D01*
X82359523Y-78561904D01*
X82321428Y-78523809D01*
X82302380Y-78485714D01*
X82283333Y-78409523D01*
X82283333Y-78352380D01*
X82302380Y-78276190D01*
X82321428Y-78238095D01*
X82359523Y-78200000D01*
X82416666Y-78180952D01*
X82454761Y-78180952D01*
X82511904Y-78200000D01*
X82530952Y-78219047D01*
X82892857Y-78580952D02*
X82702380Y-78580952D01*
X82702380Y-78180952D01*
X83026190Y-78580952D02*
X83026190Y-78180952D01*
X83254761Y-78580952D02*
X83083333Y-78352380D01*
X83254761Y-78180952D02*
X83026190Y-78409523D01*
D11*
X85100000Y-84900000D02*
X83700000Y-84900000D01*
X87600000Y-84900000D02*
X86200000Y-84900000D01*
X90100000Y-84900000D02*
X88700000Y-84900000D01*
X92600000Y-84900000D02*
X91200000Y-84900000D01*
X85750000Y-95000000D02*
X91850000Y-95000000D01*
X91850000Y-95000000D02*
X91850000Y-87900000D01*
X91850000Y-87900000D02*
X85750000Y-87900000D01*
X114200000Y-85600000D02*
X114200000Y-87000000D01*
X114200000Y-88100000D02*
X114200000Y-89500000D01*
X114200000Y-90600000D02*
X114200000Y-92000000D01*
X114200000Y-92900000D02*
X114200000Y-94300000D01*
D12*
X106350000Y-91930000D02*
G75*
G03X106350000Y-91930000I-125000J0D01*
G01*
D11*
X104650000Y-82780000D02*
X104650000Y-92080000D01*
X95350000Y-82780000D02*
X104650000Y-82780000D01*
X95350000Y-92080000D02*
X95350000Y-82780000D01*
X104650000Y-92080000D02*
X95350000Y-92080000D01*
X107375000Y-79420000D02*
X109160000Y-79420000D01*
X109510000Y-84640000D02*
X109510000Y-79360000D01*
X114090000Y-84640000D02*
X109510000Y-84640000D01*
X114090000Y-79360000D02*
X114090000Y-84640000D01*
X109510000Y-79360000D02*
X114090000Y-79360000D01*
X88650000Y-79400000D02*
X89850000Y-79400000D01*
X90200000Y-82350000D02*
X90200000Y-79450000D01*
X90800000Y-82350000D02*
X90200000Y-82350000D01*
X90800000Y-79450000D02*
X90800000Y-82350000D01*
X90200000Y-79450000D02*
X90800000Y-79450000D01*
X87000000Y-82000000D02*
X86000000Y-82000000D01*
X85650000Y-79800000D02*
X85650000Y-81800000D01*
X85350000Y-79800000D02*
X85650000Y-79800000D01*
X85350000Y-81800000D02*
X85350000Y-79800000D01*
X85650000Y-81800000D02*
X85350000Y-81800000D01*
D13*
X80150000Y-83280000D02*
X78750000Y-83280000D01*
X76350000Y-83280000D02*
X76200000Y-83280000D01*
X76200000Y-83280000D02*
X76200000Y-83580000D01*
X76200000Y-83580000D02*
X75750000Y-83580000D01*
X75750000Y-91280000D02*
X76200000Y-91280000D01*
X76200000Y-91280000D02*
X76200000Y-91580000D01*
X76200000Y-91580000D02*
X76350000Y-91580000D01*
X78750000Y-91580000D02*
X80150000Y-91580000D01*
X82325000Y-86355000D02*
X82325000Y-85630000D01*
X82325000Y-85630000D02*
X81900000Y-85630000D01*
X81900000Y-85630000D02*
X81900000Y-84630000D01*
X81900000Y-89230000D02*
X81900000Y-90230000D01*
D11*
X79800000Y-81100000D02*
X78200000Y-81100000D01*
X78200000Y-81900000D02*
X80125000Y-81900000D01*
X78200000Y-93760000D02*
X80125000Y-93760000D01*
X79800000Y-92960000D02*
X78200000Y-92960000D01*
X81700000Y-80700000D02*
X82300000Y-80700000D01*
X82300000Y-94160000D02*
X81700000Y-94160000D01*
X96500000Y-95500000D02*
X96500000Y-94900000D01*
D10*
X117700000Y-84900000D02*
X117700000Y-80725000D01*
X120900000Y-84900000D02*
X120900000Y-80725000D01*
D11*
X118100000Y-85800000D02*
X118100000Y-85800000D01*
X118300000Y-85800000D02*
X118300000Y-85800000D01*
X118300000Y-85800000D02*
G75*
G03X118100000Y-85800000I-100000J0D01*
G01*
X118100000Y-85800000D02*
G75*
G03X118300000Y-85800000I100000J0D01*
G01*
X118100000Y-94500000D02*
G75*
G03X118300000Y-94500000I100000J0D01*
G01*
X118300000Y-94500000D02*
G75*
G03X118100000Y-94500000I-100000J0D01*
G01*
X118300000Y-94500000D02*
X118300000Y-94500000D01*
X118100000Y-94500000D02*
X118100000Y-94500000D01*
D10*
X120900000Y-93600000D02*
X120900000Y-89425000D01*
X117700000Y-93600000D02*
X117700000Y-89425000D01*
X111400000Y-88900000D02*
G75*
G03X111400000Y-88800000I0J50000D01*
G01*
X111400000Y-88800000D02*
G75*
G03X111400000Y-88900000I0J-50000D01*
G01*
X111400000Y-88800000D02*
X111400000Y-88800000D01*
X111400000Y-88900000D02*
X111400000Y-88900000D01*
X108350000Y-88000000D02*
X108350000Y-87400000D01*
X110850000Y-88000000D02*
X110850000Y-87400000D01*
X109400000Y-86100000D02*
X109800000Y-86100000D01*
X109400000Y-89300000D02*
X109800000Y-89300000D01*
X110150000Y-93500000D02*
X110150000Y-92500000D01*
X108650000Y-93500000D02*
X108650000Y-92500000D01*
M02*
