G04 #@! TF.GenerationSoftware,KiCad,Pcbnew,5.1.5-52549c5~84~ubuntu18.04.1*
G04 #@! TF.CreationDate,2019-12-30T17:09:40-05:00*
G04 #@! TF.ProjectId,junebug,6a756e65-6275-4672-9e6b-696361645f70,rev?*
G04 #@! TF.SameCoordinates,Original*
G04 #@! TF.FileFunction,Soldermask,Bot*
G04 #@! TF.FilePolarity,Negative*
%FSLAX46Y46*%
G04 Gerber Fmt 4.6, Leading zero omitted, Abs format (unit mm)*
G04 Created by KiCad (PCBNEW 5.1.5-52549c5~84~ubuntu18.04.1) date 2019-12-30 17:09:40*
%MOMM*%
%LPD*%
G04 APERTURE LIST*
%ADD10C,0.100000*%
G04 APERTURE END LIST*
D10*
G36*
X85129419Y-96970742D02*
G01*
X85278795Y-97032616D01*
X85413230Y-97122443D01*
X85527557Y-97236770D01*
X85617384Y-97371205D01*
X85679258Y-97520581D01*
X85710800Y-97679158D01*
X85710800Y-97840842D01*
X85679258Y-97999419D01*
X85617384Y-98148795D01*
X85527557Y-98283230D01*
X85413230Y-98397557D01*
X85278795Y-98487384D01*
X85129419Y-98549258D01*
X84970842Y-98580800D01*
X84809158Y-98580800D01*
X84650581Y-98549258D01*
X84501205Y-98487384D01*
X84366770Y-98397557D01*
X84252443Y-98283230D01*
X84162616Y-98148795D01*
X84100742Y-97999419D01*
X84069200Y-97840842D01*
X84069200Y-97679158D01*
X84100742Y-97520581D01*
X84162616Y-97371205D01*
X84252443Y-97236770D01*
X84366770Y-97122443D01*
X84501205Y-97032616D01*
X84650581Y-96970742D01*
X84809158Y-96939200D01*
X84970842Y-96939200D01*
X85129419Y-96970742D01*
G37*
G36*
X100369419Y-96970742D02*
G01*
X100518795Y-97032616D01*
X100653230Y-97122443D01*
X100767557Y-97236770D01*
X100857384Y-97371205D01*
X100919258Y-97520581D01*
X100950800Y-97679158D01*
X100950800Y-97840842D01*
X100919258Y-97999419D01*
X100857384Y-98148795D01*
X100767557Y-98283230D01*
X100653230Y-98397557D01*
X100518795Y-98487384D01*
X100369419Y-98549258D01*
X100210842Y-98580800D01*
X100049158Y-98580800D01*
X99890581Y-98549258D01*
X99741205Y-98487384D01*
X99606770Y-98397557D01*
X99492443Y-98283230D01*
X99402616Y-98148795D01*
X99340742Y-97999419D01*
X99309200Y-97840842D01*
X99309200Y-97679158D01*
X99340742Y-97520581D01*
X99402616Y-97371205D01*
X99492443Y-97236770D01*
X99606770Y-97122443D01*
X99741205Y-97032616D01*
X99890581Y-96970742D01*
X100049158Y-96939200D01*
X100210842Y-96939200D01*
X100369419Y-96970742D01*
G37*
G36*
X82589419Y-96970742D02*
G01*
X82738795Y-97032616D01*
X82873230Y-97122443D01*
X82987557Y-97236770D01*
X83077384Y-97371205D01*
X83139258Y-97520581D01*
X83170800Y-97679158D01*
X83170800Y-97840842D01*
X83139258Y-97999419D01*
X83077384Y-98148795D01*
X82987557Y-98283230D01*
X82873230Y-98397557D01*
X82738795Y-98487384D01*
X82589419Y-98549258D01*
X82430842Y-98580800D01*
X82269158Y-98580800D01*
X82110581Y-98549258D01*
X81961205Y-98487384D01*
X81826770Y-98397557D01*
X81712443Y-98283230D01*
X81622616Y-98148795D01*
X81560742Y-97999419D01*
X81529200Y-97840842D01*
X81529200Y-97679158D01*
X81560742Y-97520581D01*
X81622616Y-97371205D01*
X81712443Y-97236770D01*
X81826770Y-97122443D01*
X81961205Y-97032616D01*
X82110581Y-96970742D01*
X82269158Y-96939200D01*
X82430842Y-96939200D01*
X82589419Y-96970742D01*
G37*
G36*
X87669419Y-96970742D02*
G01*
X87818795Y-97032616D01*
X87953230Y-97122443D01*
X88067557Y-97236770D01*
X88157384Y-97371205D01*
X88219258Y-97520581D01*
X88250800Y-97679158D01*
X88250800Y-97840842D01*
X88219258Y-97999419D01*
X88157384Y-98148795D01*
X88067557Y-98283230D01*
X87953230Y-98397557D01*
X87818795Y-98487384D01*
X87669419Y-98549258D01*
X87510842Y-98580800D01*
X87349158Y-98580800D01*
X87190581Y-98549258D01*
X87041205Y-98487384D01*
X86906770Y-98397557D01*
X86792443Y-98283230D01*
X86702616Y-98148795D01*
X86640742Y-97999419D01*
X86609200Y-97840842D01*
X86609200Y-97679158D01*
X86640742Y-97520581D01*
X86702616Y-97371205D01*
X86792443Y-97236770D01*
X86906770Y-97122443D01*
X87041205Y-97032616D01*
X87190581Y-96970742D01*
X87349158Y-96939200D01*
X87510842Y-96939200D01*
X87669419Y-96970742D01*
G37*
G36*
X90209419Y-96970742D02*
G01*
X90358795Y-97032616D01*
X90493230Y-97122443D01*
X90607557Y-97236770D01*
X90697384Y-97371205D01*
X90759258Y-97520581D01*
X90790800Y-97679158D01*
X90790800Y-97840842D01*
X90759258Y-97999419D01*
X90697384Y-98148795D01*
X90607557Y-98283230D01*
X90493230Y-98397557D01*
X90358795Y-98487384D01*
X90209419Y-98549258D01*
X90050842Y-98580800D01*
X89889158Y-98580800D01*
X89730581Y-98549258D01*
X89581205Y-98487384D01*
X89446770Y-98397557D01*
X89332443Y-98283230D01*
X89242616Y-98148795D01*
X89180742Y-97999419D01*
X89149200Y-97840842D01*
X89149200Y-97679158D01*
X89180742Y-97520581D01*
X89242616Y-97371205D01*
X89332443Y-97236770D01*
X89446770Y-97122443D01*
X89581205Y-97032616D01*
X89730581Y-96970742D01*
X89889158Y-96939200D01*
X90050842Y-96939200D01*
X90209419Y-96970742D01*
G37*
G36*
X92749419Y-96970742D02*
G01*
X92898795Y-97032616D01*
X93033230Y-97122443D01*
X93147557Y-97236770D01*
X93237384Y-97371205D01*
X93299258Y-97520581D01*
X93330800Y-97679158D01*
X93330800Y-97840842D01*
X93299258Y-97999419D01*
X93237384Y-98148795D01*
X93147557Y-98283230D01*
X93033230Y-98397557D01*
X92898795Y-98487384D01*
X92749419Y-98549258D01*
X92590842Y-98580800D01*
X92429158Y-98580800D01*
X92270581Y-98549258D01*
X92121205Y-98487384D01*
X91986770Y-98397557D01*
X91872443Y-98283230D01*
X91782616Y-98148795D01*
X91720742Y-97999419D01*
X91689200Y-97840842D01*
X91689200Y-97679158D01*
X91720742Y-97520581D01*
X91782616Y-97371205D01*
X91872443Y-97236770D01*
X91986770Y-97122443D01*
X92121205Y-97032616D01*
X92270581Y-96970742D01*
X92429158Y-96939200D01*
X92590842Y-96939200D01*
X92749419Y-96970742D01*
G37*
G36*
X95289419Y-96970742D02*
G01*
X95438795Y-97032616D01*
X95573230Y-97122443D01*
X95687557Y-97236770D01*
X95777384Y-97371205D01*
X95839258Y-97520581D01*
X95870800Y-97679158D01*
X95870800Y-97840842D01*
X95839258Y-97999419D01*
X95777384Y-98148795D01*
X95687557Y-98283230D01*
X95573230Y-98397557D01*
X95438795Y-98487384D01*
X95289419Y-98549258D01*
X95130842Y-98580800D01*
X94969158Y-98580800D01*
X94810581Y-98549258D01*
X94661205Y-98487384D01*
X94526770Y-98397557D01*
X94412443Y-98283230D01*
X94322616Y-98148795D01*
X94260742Y-97999419D01*
X94229200Y-97840842D01*
X94229200Y-97679158D01*
X94260742Y-97520581D01*
X94322616Y-97371205D01*
X94412443Y-97236770D01*
X94526770Y-97122443D01*
X94661205Y-97032616D01*
X94810581Y-96970742D01*
X94969158Y-96939200D01*
X95130842Y-96939200D01*
X95289419Y-96970742D01*
G37*
G36*
X97829419Y-96970742D02*
G01*
X97978795Y-97032616D01*
X98113230Y-97122443D01*
X98227557Y-97236770D01*
X98317384Y-97371205D01*
X98379258Y-97520581D01*
X98410800Y-97679158D01*
X98410800Y-97840842D01*
X98379258Y-97999419D01*
X98317384Y-98148795D01*
X98227557Y-98283230D01*
X98113230Y-98397557D01*
X97978795Y-98487384D01*
X97829419Y-98549258D01*
X97670842Y-98580800D01*
X97509158Y-98580800D01*
X97350581Y-98549258D01*
X97201205Y-98487384D01*
X97066770Y-98397557D01*
X96952443Y-98283230D01*
X96862616Y-98148795D01*
X96800742Y-97999419D01*
X96769200Y-97840842D01*
X96769200Y-97679158D01*
X96800742Y-97520581D01*
X96862616Y-97371205D01*
X96952443Y-97236770D01*
X97066770Y-97122443D01*
X97201205Y-97032616D01*
X97350581Y-96970742D01*
X97509158Y-96939200D01*
X97670842Y-96939200D01*
X97829419Y-96970742D01*
G37*
G36*
X105449419Y-96970742D02*
G01*
X105598795Y-97032616D01*
X105733230Y-97122443D01*
X105847557Y-97236770D01*
X105937384Y-97371205D01*
X105999258Y-97520581D01*
X106030800Y-97679158D01*
X106030800Y-97840842D01*
X105999258Y-97999419D01*
X105937384Y-98148795D01*
X105847557Y-98283230D01*
X105733230Y-98397557D01*
X105598795Y-98487384D01*
X105449419Y-98549258D01*
X105290842Y-98580800D01*
X105129158Y-98580800D01*
X104970581Y-98549258D01*
X104821205Y-98487384D01*
X104686770Y-98397557D01*
X104572443Y-98283230D01*
X104482616Y-98148795D01*
X104420742Y-97999419D01*
X104389200Y-97840842D01*
X104389200Y-97679158D01*
X104420742Y-97520581D01*
X104482616Y-97371205D01*
X104572443Y-97236770D01*
X104686770Y-97122443D01*
X104821205Y-97032616D01*
X104970581Y-96970742D01*
X105129158Y-96939200D01*
X105290842Y-96939200D01*
X105449419Y-96970742D01*
G37*
G36*
X120689419Y-96970742D02*
G01*
X120838795Y-97032616D01*
X120973230Y-97122443D01*
X121087557Y-97236770D01*
X121177384Y-97371205D01*
X121239258Y-97520581D01*
X121270800Y-97679158D01*
X121270800Y-97840842D01*
X121239258Y-97999419D01*
X121177384Y-98148795D01*
X121087557Y-98283230D01*
X120973230Y-98397557D01*
X120838795Y-98487384D01*
X120689419Y-98549258D01*
X120530842Y-98580800D01*
X120369158Y-98580800D01*
X120210581Y-98549258D01*
X120061205Y-98487384D01*
X119926770Y-98397557D01*
X119812443Y-98283230D01*
X119722616Y-98148795D01*
X119660742Y-97999419D01*
X119629200Y-97840842D01*
X119629200Y-97679158D01*
X119660742Y-97520581D01*
X119722616Y-97371205D01*
X119812443Y-97236770D01*
X119926770Y-97122443D01*
X120061205Y-97032616D01*
X120210581Y-96970742D01*
X120369158Y-96939200D01*
X120530842Y-96939200D01*
X120689419Y-96970742D01*
G37*
G36*
X118149419Y-96970742D02*
G01*
X118298795Y-97032616D01*
X118433230Y-97122443D01*
X118547557Y-97236770D01*
X118637384Y-97371205D01*
X118699258Y-97520581D01*
X118730800Y-97679158D01*
X118730800Y-97840842D01*
X118699258Y-97999419D01*
X118637384Y-98148795D01*
X118547557Y-98283230D01*
X118433230Y-98397557D01*
X118298795Y-98487384D01*
X118149419Y-98549258D01*
X117990842Y-98580800D01*
X117829158Y-98580800D01*
X117670581Y-98549258D01*
X117521205Y-98487384D01*
X117386770Y-98397557D01*
X117272443Y-98283230D01*
X117182616Y-98148795D01*
X117120742Y-97999419D01*
X117089200Y-97840842D01*
X117089200Y-97679158D01*
X117120742Y-97520581D01*
X117182616Y-97371205D01*
X117272443Y-97236770D01*
X117386770Y-97122443D01*
X117521205Y-97032616D01*
X117670581Y-96970742D01*
X117829158Y-96939200D01*
X117990842Y-96939200D01*
X118149419Y-96970742D01*
G37*
G36*
X115609419Y-96970742D02*
G01*
X115758795Y-97032616D01*
X115893230Y-97122443D01*
X116007557Y-97236770D01*
X116097384Y-97371205D01*
X116159258Y-97520581D01*
X116190800Y-97679158D01*
X116190800Y-97840842D01*
X116159258Y-97999419D01*
X116097384Y-98148795D01*
X116007557Y-98283230D01*
X115893230Y-98397557D01*
X115758795Y-98487384D01*
X115609419Y-98549258D01*
X115450842Y-98580800D01*
X115289158Y-98580800D01*
X115130581Y-98549258D01*
X114981205Y-98487384D01*
X114846770Y-98397557D01*
X114732443Y-98283230D01*
X114642616Y-98148795D01*
X114580742Y-97999419D01*
X114549200Y-97840842D01*
X114549200Y-97679158D01*
X114580742Y-97520581D01*
X114642616Y-97371205D01*
X114732443Y-97236770D01*
X114846770Y-97122443D01*
X114981205Y-97032616D01*
X115130581Y-96970742D01*
X115289158Y-96939200D01*
X115450842Y-96939200D01*
X115609419Y-96970742D01*
G37*
G36*
X113069419Y-96970742D02*
G01*
X113218795Y-97032616D01*
X113353230Y-97122443D01*
X113467557Y-97236770D01*
X113557384Y-97371205D01*
X113619258Y-97520581D01*
X113650800Y-97679158D01*
X113650800Y-97840842D01*
X113619258Y-97999419D01*
X113557384Y-98148795D01*
X113467557Y-98283230D01*
X113353230Y-98397557D01*
X113218795Y-98487384D01*
X113069419Y-98549258D01*
X112910842Y-98580800D01*
X112749158Y-98580800D01*
X112590581Y-98549258D01*
X112441205Y-98487384D01*
X112306770Y-98397557D01*
X112192443Y-98283230D01*
X112102616Y-98148795D01*
X112040742Y-97999419D01*
X112009200Y-97840842D01*
X112009200Y-97679158D01*
X112040742Y-97520581D01*
X112102616Y-97371205D01*
X112192443Y-97236770D01*
X112306770Y-97122443D01*
X112441205Y-97032616D01*
X112590581Y-96970742D01*
X112749158Y-96939200D01*
X112910842Y-96939200D01*
X113069419Y-96970742D01*
G37*
G36*
X110529419Y-96970742D02*
G01*
X110678795Y-97032616D01*
X110813230Y-97122443D01*
X110927557Y-97236770D01*
X111017384Y-97371205D01*
X111079258Y-97520581D01*
X111110800Y-97679158D01*
X111110800Y-97840842D01*
X111079258Y-97999419D01*
X111017384Y-98148795D01*
X110927557Y-98283230D01*
X110813230Y-98397557D01*
X110678795Y-98487384D01*
X110529419Y-98549258D01*
X110370842Y-98580800D01*
X110209158Y-98580800D01*
X110050581Y-98549258D01*
X109901205Y-98487384D01*
X109766770Y-98397557D01*
X109652443Y-98283230D01*
X109562616Y-98148795D01*
X109500742Y-97999419D01*
X109469200Y-97840842D01*
X109469200Y-97679158D01*
X109500742Y-97520581D01*
X109562616Y-97371205D01*
X109652443Y-97236770D01*
X109766770Y-97122443D01*
X109901205Y-97032616D01*
X110050581Y-96970742D01*
X110209158Y-96939200D01*
X110370842Y-96939200D01*
X110529419Y-96970742D01*
G37*
G36*
X107989419Y-96970742D02*
G01*
X108138795Y-97032616D01*
X108273230Y-97122443D01*
X108387557Y-97236770D01*
X108477384Y-97371205D01*
X108539258Y-97520581D01*
X108570800Y-97679158D01*
X108570800Y-97840842D01*
X108539258Y-97999419D01*
X108477384Y-98148795D01*
X108387557Y-98283230D01*
X108273230Y-98397557D01*
X108138795Y-98487384D01*
X107989419Y-98549258D01*
X107830842Y-98580800D01*
X107669158Y-98580800D01*
X107510581Y-98549258D01*
X107361205Y-98487384D01*
X107226770Y-98397557D01*
X107112443Y-98283230D01*
X107022616Y-98148795D01*
X106960742Y-97999419D01*
X106929200Y-97840842D01*
X106929200Y-97679158D01*
X106960742Y-97520581D01*
X107022616Y-97371205D01*
X107112443Y-97236770D01*
X107226770Y-97122443D01*
X107361205Y-97032616D01*
X107510581Y-96970742D01*
X107669158Y-96939200D01*
X107830842Y-96939200D01*
X107989419Y-96970742D01*
G37*
G36*
X102909419Y-96970742D02*
G01*
X103058795Y-97032616D01*
X103193230Y-97122443D01*
X103307557Y-97236770D01*
X103397384Y-97371205D01*
X103459258Y-97520581D01*
X103490800Y-97679158D01*
X103490800Y-97840842D01*
X103459258Y-97999419D01*
X103397384Y-98148795D01*
X103307557Y-98283230D01*
X103193230Y-98397557D01*
X103058795Y-98487384D01*
X102909419Y-98549258D01*
X102750842Y-98580800D01*
X102589158Y-98580800D01*
X102430581Y-98549258D01*
X102281205Y-98487384D01*
X102146770Y-98397557D01*
X102032443Y-98283230D01*
X101942616Y-98148795D01*
X101880742Y-97999419D01*
X101849200Y-97840842D01*
X101849200Y-97679158D01*
X101880742Y-97520581D01*
X101942616Y-97371205D01*
X102032443Y-97236770D01*
X102146770Y-97122443D01*
X102281205Y-97032616D01*
X102430581Y-96970742D01*
X102589158Y-96939200D01*
X102750842Y-96939200D01*
X102909419Y-96970742D01*
G37*
G36*
X78992352Y-94828796D02*
G01*
X79274579Y-94945699D01*
X79528578Y-95115415D01*
X79744585Y-95331422D01*
X79914301Y-95585421D01*
X80031204Y-95867648D01*
X80090800Y-96167259D01*
X80090800Y-96472741D01*
X80031204Y-96772352D01*
X79914301Y-97054579D01*
X79744585Y-97308578D01*
X79528578Y-97524585D01*
X79274579Y-97694301D01*
X78992352Y-97811204D01*
X78692741Y-97870800D01*
X78387259Y-97870800D01*
X78087648Y-97811204D01*
X77805421Y-97694301D01*
X77551422Y-97524585D01*
X77335415Y-97308578D01*
X77165699Y-97054579D01*
X77048796Y-96772352D01*
X76989200Y-96472741D01*
X76989200Y-96167259D01*
X77048796Y-95867648D01*
X77165699Y-95585421D01*
X77335415Y-95331422D01*
X77551422Y-95115415D01*
X77805421Y-94945699D01*
X78087648Y-94828796D01*
X78387259Y-94769200D01*
X78692741Y-94769200D01*
X78992352Y-94828796D01*
G37*
G36*
X124712352Y-94828796D02*
G01*
X124994579Y-94945699D01*
X125248578Y-95115415D01*
X125464585Y-95331422D01*
X125634301Y-95585421D01*
X125751204Y-95867648D01*
X125810800Y-96167259D01*
X125810800Y-96472741D01*
X125751204Y-96772352D01*
X125634301Y-97054579D01*
X125464585Y-97308578D01*
X125248578Y-97524585D01*
X124994579Y-97694301D01*
X124712352Y-97811204D01*
X124412741Y-97870800D01*
X124107259Y-97870800D01*
X123807648Y-97811204D01*
X123525421Y-97694301D01*
X123271422Y-97524585D01*
X123055415Y-97308578D01*
X122885699Y-97054579D01*
X122768796Y-96772352D01*
X122709200Y-96472741D01*
X122709200Y-96167259D01*
X122768796Y-95867648D01*
X122885699Y-95585421D01*
X123055415Y-95331422D01*
X123271422Y-95115415D01*
X123525421Y-94945699D01*
X123807648Y-94828796D01*
X124107259Y-94769200D01*
X124412741Y-94769200D01*
X124712352Y-94828796D01*
G37*
G36*
X125769419Y-92990742D02*
G01*
X125918795Y-93052616D01*
X126053230Y-93142443D01*
X126167557Y-93256770D01*
X126257384Y-93391205D01*
X126319258Y-93540581D01*
X126350800Y-93699158D01*
X126350800Y-93860842D01*
X126319258Y-94019419D01*
X126257384Y-94168795D01*
X126167557Y-94303230D01*
X126053230Y-94417557D01*
X125918795Y-94507384D01*
X125769419Y-94569258D01*
X125610842Y-94600800D01*
X125449158Y-94600800D01*
X125290581Y-94569258D01*
X125141205Y-94507384D01*
X125006770Y-94417557D01*
X124892443Y-94303230D01*
X124802616Y-94168795D01*
X124740742Y-94019419D01*
X124709200Y-93860842D01*
X124709200Y-93699158D01*
X124740742Y-93540581D01*
X124802616Y-93391205D01*
X124892443Y-93256770D01*
X125006770Y-93142443D01*
X125141205Y-93052616D01*
X125290581Y-92990742D01*
X125449158Y-92959200D01*
X125610842Y-92959200D01*
X125769419Y-92990742D01*
G37*
G36*
X123229419Y-92990742D02*
G01*
X123378795Y-93052616D01*
X123513230Y-93142443D01*
X123627557Y-93256770D01*
X123717384Y-93391205D01*
X123779258Y-93540581D01*
X123810800Y-93699158D01*
X123810800Y-93860842D01*
X123779258Y-94019419D01*
X123717384Y-94168795D01*
X123627557Y-94303230D01*
X123513230Y-94417557D01*
X123378795Y-94507384D01*
X123229419Y-94569258D01*
X123070842Y-94600800D01*
X122909158Y-94600800D01*
X122750581Y-94569258D01*
X122601205Y-94507384D01*
X122466770Y-94417557D01*
X122352443Y-94303230D01*
X122262616Y-94168795D01*
X122200742Y-94019419D01*
X122169200Y-93860842D01*
X122169200Y-93699158D01*
X122200742Y-93540581D01*
X122262616Y-93391205D01*
X122352443Y-93256770D01*
X122466770Y-93142443D01*
X122601205Y-93052616D01*
X122750581Y-92990742D01*
X122909158Y-92959200D01*
X123070842Y-92959200D01*
X123229419Y-92990742D01*
G37*
G36*
X125769419Y-90450742D02*
G01*
X125918795Y-90512616D01*
X126053230Y-90602443D01*
X126167557Y-90716770D01*
X126257384Y-90851205D01*
X126319258Y-91000581D01*
X126350800Y-91159158D01*
X126350800Y-91320842D01*
X126319258Y-91479419D01*
X126257384Y-91628795D01*
X126167557Y-91763230D01*
X126053230Y-91877557D01*
X125918795Y-91967384D01*
X125769419Y-92029258D01*
X125610842Y-92060800D01*
X125449158Y-92060800D01*
X125290581Y-92029258D01*
X125141205Y-91967384D01*
X125006770Y-91877557D01*
X124892443Y-91763230D01*
X124802616Y-91628795D01*
X124740742Y-91479419D01*
X124709200Y-91320842D01*
X124709200Y-91159158D01*
X124740742Y-91000581D01*
X124802616Y-90851205D01*
X124892443Y-90716770D01*
X125006770Y-90602443D01*
X125141205Y-90512616D01*
X125290581Y-90450742D01*
X125449158Y-90419200D01*
X125610842Y-90419200D01*
X125769419Y-90450742D01*
G37*
G36*
X123229419Y-90450742D02*
G01*
X123378795Y-90512616D01*
X123513230Y-90602443D01*
X123627557Y-90716770D01*
X123717384Y-90851205D01*
X123779258Y-91000581D01*
X123810800Y-91159158D01*
X123810800Y-91320842D01*
X123779258Y-91479419D01*
X123717384Y-91628795D01*
X123627557Y-91763230D01*
X123513230Y-91877557D01*
X123378795Y-91967384D01*
X123229419Y-92029258D01*
X123070842Y-92060800D01*
X122909158Y-92060800D01*
X122750581Y-92029258D01*
X122601205Y-91967384D01*
X122466770Y-91877557D01*
X122352443Y-91763230D01*
X122262616Y-91628795D01*
X122200742Y-91479419D01*
X122169200Y-91320842D01*
X122169200Y-91159158D01*
X122200742Y-91000581D01*
X122262616Y-90851205D01*
X122352443Y-90716770D01*
X122466770Y-90602443D01*
X122601205Y-90512616D01*
X122750581Y-90450742D01*
X122909158Y-90419200D01*
X123070842Y-90419200D01*
X123229419Y-90450742D01*
G37*
G36*
X77997674Y-90688255D02*
G01*
X77997677Y-90688256D01*
X77997678Y-90688256D01*
X78046390Y-90703033D01*
X78115643Y-90724040D01*
X78170000Y-90753094D01*
X78224358Y-90782149D01*
X78319648Y-90860352D01*
X78397851Y-90955642D01*
X78421871Y-91000581D01*
X78455960Y-91064357D01*
X78491745Y-91182326D01*
X78503828Y-91305000D01*
X78491745Y-91427674D01*
X78455960Y-91545643D01*
X78433268Y-91588096D01*
X78397851Y-91654358D01*
X78319648Y-91749648D01*
X78224358Y-91827851D01*
X78170000Y-91856905D01*
X78115643Y-91885960D01*
X78046390Y-91906967D01*
X77997678Y-91921744D01*
X77997677Y-91921744D01*
X77997674Y-91921745D01*
X77905738Y-91930800D01*
X77194262Y-91930800D01*
X77102326Y-91921745D01*
X77102323Y-91921744D01*
X77102322Y-91921744D01*
X77053610Y-91906967D01*
X76984357Y-91885960D01*
X76930000Y-91856905D01*
X76875642Y-91827851D01*
X76780352Y-91749648D01*
X76702149Y-91654358D01*
X76666732Y-91588096D01*
X76644040Y-91545643D01*
X76608255Y-91427674D01*
X76596172Y-91305000D01*
X76608255Y-91182326D01*
X76644040Y-91064357D01*
X76678129Y-91000581D01*
X76702149Y-90955642D01*
X76780352Y-90860352D01*
X76875642Y-90782149D01*
X76930000Y-90753094D01*
X76984357Y-90724040D01*
X77053610Y-90703033D01*
X77102322Y-90688256D01*
X77102323Y-90688256D01*
X77102326Y-90688255D01*
X77194262Y-90679200D01*
X77905738Y-90679200D01*
X77997674Y-90688255D01*
G37*
G36*
X81777080Y-90390425D02*
G01*
X81777083Y-90390426D01*
X81923322Y-90434787D01*
X82058096Y-90506825D01*
X82176227Y-90603773D01*
X82273175Y-90721904D01*
X82345213Y-90856678D01*
X82384501Y-90986195D01*
X82389575Y-91002920D01*
X82404554Y-91155000D01*
X82389575Y-91307080D01*
X82389574Y-91307083D01*
X82345213Y-91453322D01*
X82273175Y-91588096D01*
X82176227Y-91706227D01*
X82058096Y-91803175D01*
X81923322Y-91875213D01*
X81793805Y-91914501D01*
X81777080Y-91919575D01*
X81663110Y-91930800D01*
X81036890Y-91930800D01*
X80922920Y-91919575D01*
X80906195Y-91914501D01*
X80776678Y-91875213D01*
X80641904Y-91803175D01*
X80523773Y-91706227D01*
X80426825Y-91588096D01*
X80354787Y-91453322D01*
X80310426Y-91307083D01*
X80310425Y-91307080D01*
X80295446Y-91155000D01*
X80310425Y-91002920D01*
X80315499Y-90986195D01*
X80354787Y-90856678D01*
X80426825Y-90721904D01*
X80523773Y-90603773D01*
X80641904Y-90506825D01*
X80776678Y-90434787D01*
X80922917Y-90390426D01*
X80922920Y-90390425D01*
X81036890Y-90379200D01*
X81663110Y-90379200D01*
X81777080Y-90390425D01*
G37*
G36*
X80431494Y-89496524D02*
G01*
X80472513Y-89513515D01*
X80513534Y-89530506D01*
X80562646Y-89563322D01*
X80587370Y-89579842D01*
X80650158Y-89642630D01*
X80650159Y-89642632D01*
X80699494Y-89716466D01*
X80733476Y-89798507D01*
X80750800Y-89885600D01*
X80750800Y-89974400D01*
X80733476Y-90061493D01*
X80699494Y-90143534D01*
X80666678Y-90192646D01*
X80650158Y-90217370D01*
X80587370Y-90280158D01*
X80562646Y-90296678D01*
X80513534Y-90329494D01*
X80431494Y-90363476D01*
X80344400Y-90380800D01*
X80255600Y-90380800D01*
X80168506Y-90363476D01*
X80086466Y-90329494D01*
X80037354Y-90296678D01*
X80012630Y-90280158D01*
X79949842Y-90217370D01*
X79933322Y-90192646D01*
X79900506Y-90143534D01*
X79866524Y-90061493D01*
X79849200Y-89974400D01*
X79849200Y-89885600D01*
X79866524Y-89798507D01*
X79900506Y-89716466D01*
X79949841Y-89642632D01*
X79949842Y-89642630D01*
X80012630Y-89579842D01*
X80037354Y-89563322D01*
X80086466Y-89530506D01*
X80168506Y-89496524D01*
X80255600Y-89479200D01*
X80344400Y-89479200D01*
X80431494Y-89496524D01*
G37*
G36*
X125769419Y-87910742D02*
G01*
X125918795Y-87972616D01*
X126053230Y-88062443D01*
X126167557Y-88176770D01*
X126257384Y-88311205D01*
X126319258Y-88460581D01*
X126350800Y-88619158D01*
X126350800Y-88780842D01*
X126319258Y-88939419D01*
X126257384Y-89088795D01*
X126167557Y-89223230D01*
X126053230Y-89337557D01*
X125918795Y-89427384D01*
X125769419Y-89489258D01*
X125610842Y-89520800D01*
X125449158Y-89520800D01*
X125290581Y-89489258D01*
X125141205Y-89427384D01*
X125006770Y-89337557D01*
X124892443Y-89223230D01*
X124802616Y-89088795D01*
X124740742Y-88939419D01*
X124709200Y-88780842D01*
X124709200Y-88619158D01*
X124740742Y-88460581D01*
X124802616Y-88311205D01*
X124892443Y-88176770D01*
X125006770Y-88062443D01*
X125141205Y-87972616D01*
X125290581Y-87910742D01*
X125449158Y-87879200D01*
X125610842Y-87879200D01*
X125769419Y-87910742D01*
G37*
G36*
X123229419Y-87910742D02*
G01*
X123378795Y-87972616D01*
X123513230Y-88062443D01*
X123627557Y-88176770D01*
X123717384Y-88311205D01*
X123779258Y-88460581D01*
X123810800Y-88619158D01*
X123810800Y-88780842D01*
X123779258Y-88939419D01*
X123717384Y-89088795D01*
X123627557Y-89223230D01*
X123513230Y-89337557D01*
X123378795Y-89427384D01*
X123229419Y-89489258D01*
X123070842Y-89520800D01*
X122909158Y-89520800D01*
X122750581Y-89489258D01*
X122601205Y-89427384D01*
X122466770Y-89337557D01*
X122352443Y-89223230D01*
X122262616Y-89088795D01*
X122200742Y-88939419D01*
X122169200Y-88780842D01*
X122169200Y-88619158D01*
X122200742Y-88460581D01*
X122262616Y-88311205D01*
X122352443Y-88176770D01*
X122466770Y-88062443D01*
X122601205Y-87972616D01*
X122750581Y-87910742D01*
X122909158Y-87879200D01*
X123070842Y-87879200D01*
X123229419Y-87910742D01*
G37*
G36*
X125769419Y-85370742D02*
G01*
X125918795Y-85432616D01*
X126053230Y-85522443D01*
X126167557Y-85636770D01*
X126257384Y-85771205D01*
X126319258Y-85920581D01*
X126350800Y-86079158D01*
X126350800Y-86240842D01*
X126319258Y-86399419D01*
X126257384Y-86548795D01*
X126167557Y-86683230D01*
X126053230Y-86797557D01*
X125918795Y-86887384D01*
X125769419Y-86949258D01*
X125610842Y-86980800D01*
X125449158Y-86980800D01*
X125290581Y-86949258D01*
X125141205Y-86887384D01*
X125006770Y-86797557D01*
X124892443Y-86683230D01*
X124802616Y-86548795D01*
X124740742Y-86399419D01*
X124709200Y-86240842D01*
X124709200Y-86079158D01*
X124740742Y-85920581D01*
X124802616Y-85771205D01*
X124892443Y-85636770D01*
X125006770Y-85522443D01*
X125141205Y-85432616D01*
X125290581Y-85370742D01*
X125449158Y-85339200D01*
X125610842Y-85339200D01*
X125769419Y-85370742D01*
G37*
G36*
X123229419Y-85370742D02*
G01*
X123378795Y-85432616D01*
X123513230Y-85522443D01*
X123627557Y-85636770D01*
X123717384Y-85771205D01*
X123779258Y-85920581D01*
X123810800Y-86079158D01*
X123810800Y-86240842D01*
X123779258Y-86399419D01*
X123717384Y-86548795D01*
X123627557Y-86683230D01*
X123513230Y-86797557D01*
X123378795Y-86887384D01*
X123229419Y-86949258D01*
X123070842Y-86980800D01*
X122909158Y-86980800D01*
X122750581Y-86949258D01*
X122601205Y-86887384D01*
X122466770Y-86797557D01*
X122352443Y-86683230D01*
X122262616Y-86548795D01*
X122200742Y-86399419D01*
X122169200Y-86240842D01*
X122169200Y-86079158D01*
X122200742Y-85920581D01*
X122262616Y-85771205D01*
X122352443Y-85636770D01*
X122466770Y-85522443D01*
X122601205Y-85432616D01*
X122750581Y-85370742D01*
X122909158Y-85339200D01*
X123070842Y-85339200D01*
X123229419Y-85370742D01*
G37*
G36*
X80431494Y-84496524D02*
G01*
X80513534Y-84530506D01*
X80562646Y-84563322D01*
X80587370Y-84579842D01*
X80650158Y-84642630D01*
X80650159Y-84642632D01*
X80699494Y-84716466D01*
X80733476Y-84798507D01*
X80750800Y-84885600D01*
X80750800Y-84974400D01*
X80733476Y-85061493D01*
X80699494Y-85143534D01*
X80666678Y-85192646D01*
X80650158Y-85217370D01*
X80587370Y-85280158D01*
X80562646Y-85296678D01*
X80513534Y-85329494D01*
X80490101Y-85339200D01*
X80431494Y-85363476D01*
X80344400Y-85380800D01*
X80255600Y-85380800D01*
X80168506Y-85363476D01*
X80109899Y-85339200D01*
X80086466Y-85329494D01*
X80037354Y-85296678D01*
X80012630Y-85280158D01*
X79949842Y-85217370D01*
X79933322Y-85192646D01*
X79900506Y-85143534D01*
X79866524Y-85061493D01*
X79849200Y-84974400D01*
X79849200Y-84885600D01*
X79866524Y-84798507D01*
X79900506Y-84716466D01*
X79949841Y-84642632D01*
X79949842Y-84642630D01*
X80012630Y-84579842D01*
X80037354Y-84563322D01*
X80086466Y-84530506D01*
X80127487Y-84513515D01*
X80168506Y-84496524D01*
X80255600Y-84479200D01*
X80344400Y-84479200D01*
X80431494Y-84496524D01*
G37*
G36*
X81777080Y-82940425D02*
G01*
X81777083Y-82940426D01*
X81923322Y-82984787D01*
X82058096Y-83056825D01*
X82176227Y-83153773D01*
X82273175Y-83271904D01*
X82345213Y-83406678D01*
X82352993Y-83432326D01*
X82389575Y-83552920D01*
X82404554Y-83705000D01*
X82389575Y-83857080D01*
X82389574Y-83857083D01*
X82345213Y-84003322D01*
X82273175Y-84138096D01*
X82176227Y-84256227D01*
X82058096Y-84353175D01*
X81923322Y-84425213D01*
X81793805Y-84464501D01*
X81777080Y-84469575D01*
X81663110Y-84480800D01*
X81036890Y-84480800D01*
X80922920Y-84469575D01*
X80906195Y-84464501D01*
X80776678Y-84425213D01*
X80641904Y-84353175D01*
X80523773Y-84256227D01*
X80426825Y-84138096D01*
X80354787Y-84003322D01*
X80310426Y-83857083D01*
X80310425Y-83857080D01*
X80295446Y-83705000D01*
X80310425Y-83552920D01*
X80347007Y-83432326D01*
X80354787Y-83406678D01*
X80426825Y-83271904D01*
X80523773Y-83153773D01*
X80641904Y-83056825D01*
X80776678Y-82984787D01*
X80922917Y-82940426D01*
X80922920Y-82940425D01*
X81036890Y-82929200D01*
X81663110Y-82929200D01*
X81777080Y-82940425D01*
G37*
G36*
X125769419Y-82830742D02*
G01*
X125918795Y-82892616D01*
X126053230Y-82982443D01*
X126167557Y-83096770D01*
X126257384Y-83231205D01*
X126319258Y-83380581D01*
X126350800Y-83539158D01*
X126350800Y-83700842D01*
X126319258Y-83859419D01*
X126257384Y-84008795D01*
X126167557Y-84143230D01*
X126053230Y-84257557D01*
X125918795Y-84347384D01*
X125769419Y-84409258D01*
X125610842Y-84440800D01*
X125449158Y-84440800D01*
X125290581Y-84409258D01*
X125141205Y-84347384D01*
X125006770Y-84257557D01*
X124892443Y-84143230D01*
X124802616Y-84008795D01*
X124740742Y-83859419D01*
X124709200Y-83700842D01*
X124709200Y-83539158D01*
X124740742Y-83380581D01*
X124802616Y-83231205D01*
X124892443Y-83096770D01*
X125006770Y-82982443D01*
X125141205Y-82892616D01*
X125290581Y-82830742D01*
X125449158Y-82799200D01*
X125610842Y-82799200D01*
X125769419Y-82830742D01*
G37*
G36*
X123229419Y-82830742D02*
G01*
X123378795Y-82892616D01*
X123513230Y-82982443D01*
X123627557Y-83096770D01*
X123717384Y-83231205D01*
X123779258Y-83380581D01*
X123810800Y-83539158D01*
X123810800Y-83700842D01*
X123779258Y-83859419D01*
X123717384Y-84008795D01*
X123627557Y-84143230D01*
X123513230Y-84257557D01*
X123378795Y-84347384D01*
X123229419Y-84409258D01*
X123070842Y-84440800D01*
X122909158Y-84440800D01*
X122750581Y-84409258D01*
X122601205Y-84347384D01*
X122466770Y-84257557D01*
X122352443Y-84143230D01*
X122262616Y-84008795D01*
X122200742Y-83859419D01*
X122169200Y-83700842D01*
X122169200Y-83539158D01*
X122200742Y-83380581D01*
X122262616Y-83231205D01*
X122352443Y-83096770D01*
X122466770Y-82982443D01*
X122601205Y-82892616D01*
X122750581Y-82830742D01*
X122909158Y-82799200D01*
X123070842Y-82799200D01*
X123229419Y-82830742D01*
G37*
G36*
X77997674Y-82938255D02*
G01*
X77997677Y-82938256D01*
X77997678Y-82938256D01*
X78046390Y-82953033D01*
X78115643Y-82974040D01*
X78170000Y-83003095D01*
X78224358Y-83032149D01*
X78319648Y-83110352D01*
X78397851Y-83205642D01*
X78411514Y-83231205D01*
X78455960Y-83314357D01*
X78491745Y-83432326D01*
X78503828Y-83555000D01*
X78491745Y-83677674D01*
X78455960Y-83795643D01*
X78426906Y-83850000D01*
X78397851Y-83904358D01*
X78319648Y-83999648D01*
X78224358Y-84077851D01*
X78170000Y-84106905D01*
X78115643Y-84135960D01*
X78091673Y-84143231D01*
X77997678Y-84171744D01*
X77997677Y-84171744D01*
X77997674Y-84171745D01*
X77905738Y-84180800D01*
X77194262Y-84180800D01*
X77102326Y-84171745D01*
X77102323Y-84171744D01*
X77102322Y-84171744D01*
X77008327Y-84143231D01*
X76984357Y-84135960D01*
X76930000Y-84106905D01*
X76875642Y-84077851D01*
X76780352Y-83999648D01*
X76702149Y-83904358D01*
X76673094Y-83850000D01*
X76644040Y-83795643D01*
X76608255Y-83677674D01*
X76596172Y-83555000D01*
X76608255Y-83432326D01*
X76644040Y-83314357D01*
X76688486Y-83231205D01*
X76702149Y-83205642D01*
X76780352Y-83110352D01*
X76875642Y-83032149D01*
X76930000Y-83003095D01*
X76984357Y-82974040D01*
X77053610Y-82953033D01*
X77102322Y-82938256D01*
X77102323Y-82938256D01*
X77102326Y-82938255D01*
X77194262Y-82929200D01*
X77905738Y-82929200D01*
X77997674Y-82938255D01*
G37*
G36*
X125769419Y-80290742D02*
G01*
X125918795Y-80352616D01*
X126053230Y-80442443D01*
X126167557Y-80556770D01*
X126257384Y-80691205D01*
X126319258Y-80840581D01*
X126350800Y-80999158D01*
X126350800Y-81160842D01*
X126319258Y-81319419D01*
X126257384Y-81468795D01*
X126167557Y-81603230D01*
X126053230Y-81717557D01*
X125918795Y-81807384D01*
X125769419Y-81869258D01*
X125610842Y-81900800D01*
X125449158Y-81900800D01*
X125290581Y-81869258D01*
X125141205Y-81807384D01*
X125006770Y-81717557D01*
X124892443Y-81603230D01*
X124802616Y-81468795D01*
X124740742Y-81319419D01*
X124709200Y-81160842D01*
X124709200Y-80999158D01*
X124740742Y-80840581D01*
X124802616Y-80691205D01*
X124892443Y-80556770D01*
X125006770Y-80442443D01*
X125141205Y-80352616D01*
X125290581Y-80290742D01*
X125449158Y-80259200D01*
X125610842Y-80259200D01*
X125769419Y-80290742D01*
G37*
G36*
X123229419Y-80290742D02*
G01*
X123378795Y-80352616D01*
X123513230Y-80442443D01*
X123627557Y-80556770D01*
X123717384Y-80691205D01*
X123779258Y-80840581D01*
X123810800Y-80999158D01*
X123810800Y-81160842D01*
X123779258Y-81319419D01*
X123717384Y-81468795D01*
X123627557Y-81603230D01*
X123513230Y-81717557D01*
X123378795Y-81807384D01*
X123229419Y-81869258D01*
X123070842Y-81900800D01*
X122909158Y-81900800D01*
X122750581Y-81869258D01*
X122601205Y-81807384D01*
X122466770Y-81717557D01*
X122352443Y-81603230D01*
X122262616Y-81468795D01*
X122200742Y-81319419D01*
X122169200Y-81160842D01*
X122169200Y-80999158D01*
X122200742Y-80840581D01*
X122262616Y-80691205D01*
X122352443Y-80556770D01*
X122466770Y-80442443D01*
X122601205Y-80352616D01*
X122750581Y-80290742D01*
X122909158Y-80259200D01*
X123070842Y-80259200D01*
X123229419Y-80290742D01*
G37*
G36*
X124712352Y-77048796D02*
G01*
X124994579Y-77165699D01*
X125248578Y-77335415D01*
X125464585Y-77551422D01*
X125634301Y-77805421D01*
X125751204Y-78087648D01*
X125810800Y-78387259D01*
X125810800Y-78692741D01*
X125751204Y-78992352D01*
X125634301Y-79274579D01*
X125464585Y-79528578D01*
X125248578Y-79744585D01*
X124994579Y-79914301D01*
X124712352Y-80031204D01*
X124412741Y-80090800D01*
X124107259Y-80090800D01*
X123807648Y-80031204D01*
X123525421Y-79914301D01*
X123271422Y-79744585D01*
X123055415Y-79528578D01*
X122885699Y-79274579D01*
X122768796Y-78992352D01*
X122709200Y-78692741D01*
X122709200Y-78387259D01*
X122768796Y-78087648D01*
X122885699Y-77805421D01*
X123055415Y-77551422D01*
X123271422Y-77335415D01*
X123525421Y-77165699D01*
X123807648Y-77048796D01*
X124107259Y-76989200D01*
X124412741Y-76989200D01*
X124712352Y-77048796D01*
G37*
G36*
X78992352Y-77048796D02*
G01*
X79274579Y-77165699D01*
X79528578Y-77335415D01*
X79744585Y-77551422D01*
X79914301Y-77805421D01*
X80031204Y-78087648D01*
X80090800Y-78387259D01*
X80090800Y-78692741D01*
X80031204Y-78992352D01*
X79914301Y-79274579D01*
X79744585Y-79528578D01*
X79528578Y-79744585D01*
X79274579Y-79914301D01*
X78992352Y-80031204D01*
X78692741Y-80090800D01*
X78387259Y-80090800D01*
X78087648Y-80031204D01*
X77805421Y-79914301D01*
X77551422Y-79744585D01*
X77335415Y-79528578D01*
X77165699Y-79274579D01*
X77048796Y-78992352D01*
X76989200Y-78692741D01*
X76989200Y-78387259D01*
X77048796Y-78087648D01*
X77165699Y-77805421D01*
X77335415Y-77551422D01*
X77551422Y-77335415D01*
X77805421Y-77165699D01*
X78087648Y-77048796D01*
X78387259Y-76989200D01*
X78692741Y-76989200D01*
X78992352Y-77048796D01*
G37*
G36*
X95289419Y-76310742D02*
G01*
X95438795Y-76372616D01*
X95573230Y-76462443D01*
X95687557Y-76576770D01*
X95777384Y-76711205D01*
X95839258Y-76860581D01*
X95870800Y-77019158D01*
X95870800Y-77180842D01*
X95839258Y-77339419D01*
X95777384Y-77488795D01*
X95687557Y-77623230D01*
X95573230Y-77737557D01*
X95438795Y-77827384D01*
X95289419Y-77889258D01*
X95130842Y-77920800D01*
X94969158Y-77920800D01*
X94810581Y-77889258D01*
X94661205Y-77827384D01*
X94526770Y-77737557D01*
X94412443Y-77623230D01*
X94322616Y-77488795D01*
X94260742Y-77339419D01*
X94229200Y-77180842D01*
X94229200Y-77019158D01*
X94260742Y-76860581D01*
X94322616Y-76711205D01*
X94412443Y-76576770D01*
X94526770Y-76462443D01*
X94661205Y-76372616D01*
X94810581Y-76310742D01*
X94969158Y-76279200D01*
X95130842Y-76279200D01*
X95289419Y-76310742D01*
G37*
G36*
X102909419Y-76310742D02*
G01*
X103058795Y-76372616D01*
X103193230Y-76462443D01*
X103307557Y-76576770D01*
X103397384Y-76711205D01*
X103459258Y-76860581D01*
X103490800Y-77019158D01*
X103490800Y-77180842D01*
X103459258Y-77339419D01*
X103397384Y-77488795D01*
X103307557Y-77623230D01*
X103193230Y-77737557D01*
X103058795Y-77827384D01*
X102909419Y-77889258D01*
X102750842Y-77920800D01*
X102589158Y-77920800D01*
X102430581Y-77889258D01*
X102281205Y-77827384D01*
X102146770Y-77737557D01*
X102032443Y-77623230D01*
X101942616Y-77488795D01*
X101880742Y-77339419D01*
X101849200Y-77180842D01*
X101849200Y-77019158D01*
X101880742Y-76860581D01*
X101942616Y-76711205D01*
X102032443Y-76576770D01*
X102146770Y-76462443D01*
X102281205Y-76372616D01*
X102430581Y-76310742D01*
X102589158Y-76279200D01*
X102750842Y-76279200D01*
X102909419Y-76310742D01*
G37*
G36*
X100369419Y-76310742D02*
G01*
X100518795Y-76372616D01*
X100653230Y-76462443D01*
X100767557Y-76576770D01*
X100857384Y-76711205D01*
X100919258Y-76860581D01*
X100950800Y-77019158D01*
X100950800Y-77180842D01*
X100919258Y-77339419D01*
X100857384Y-77488795D01*
X100767557Y-77623230D01*
X100653230Y-77737557D01*
X100518795Y-77827384D01*
X100369419Y-77889258D01*
X100210842Y-77920800D01*
X100049158Y-77920800D01*
X99890581Y-77889258D01*
X99741205Y-77827384D01*
X99606770Y-77737557D01*
X99492443Y-77623230D01*
X99402616Y-77488795D01*
X99340742Y-77339419D01*
X99309200Y-77180842D01*
X99309200Y-77019158D01*
X99340742Y-76860581D01*
X99402616Y-76711205D01*
X99492443Y-76576770D01*
X99606770Y-76462443D01*
X99741205Y-76372616D01*
X99890581Y-76310742D01*
X100049158Y-76279200D01*
X100210842Y-76279200D01*
X100369419Y-76310742D01*
G37*
G36*
X97829419Y-76310742D02*
G01*
X97978795Y-76372616D01*
X98113230Y-76462443D01*
X98227557Y-76576770D01*
X98317384Y-76711205D01*
X98379258Y-76860581D01*
X98410800Y-77019158D01*
X98410800Y-77180842D01*
X98379258Y-77339419D01*
X98317384Y-77488795D01*
X98227557Y-77623230D01*
X98113230Y-77737557D01*
X97978795Y-77827384D01*
X97829419Y-77889258D01*
X97670842Y-77920800D01*
X97509158Y-77920800D01*
X97350581Y-77889258D01*
X97201205Y-77827384D01*
X97066770Y-77737557D01*
X96952443Y-77623230D01*
X96862616Y-77488795D01*
X96800742Y-77339419D01*
X96769200Y-77180842D01*
X96769200Y-77019158D01*
X96800742Y-76860581D01*
X96862616Y-76711205D01*
X96952443Y-76576770D01*
X97066770Y-76462443D01*
X97201205Y-76372616D01*
X97350581Y-76310742D01*
X97509158Y-76279200D01*
X97670842Y-76279200D01*
X97829419Y-76310742D01*
G37*
G36*
X85129419Y-76310742D02*
G01*
X85278795Y-76372616D01*
X85413230Y-76462443D01*
X85527557Y-76576770D01*
X85617384Y-76711205D01*
X85679258Y-76860581D01*
X85710800Y-77019158D01*
X85710800Y-77180842D01*
X85679258Y-77339419D01*
X85617384Y-77488795D01*
X85527557Y-77623230D01*
X85413230Y-77737557D01*
X85278795Y-77827384D01*
X85129419Y-77889258D01*
X84970842Y-77920800D01*
X84809158Y-77920800D01*
X84650581Y-77889258D01*
X84501205Y-77827384D01*
X84366770Y-77737557D01*
X84252443Y-77623230D01*
X84162616Y-77488795D01*
X84100742Y-77339419D01*
X84069200Y-77180842D01*
X84069200Y-77019158D01*
X84100742Y-76860581D01*
X84162616Y-76711205D01*
X84252443Y-76576770D01*
X84366770Y-76462443D01*
X84501205Y-76372616D01*
X84650581Y-76310742D01*
X84809158Y-76279200D01*
X84970842Y-76279200D01*
X85129419Y-76310742D01*
G37*
G36*
X90209419Y-76310742D02*
G01*
X90358795Y-76372616D01*
X90493230Y-76462443D01*
X90607557Y-76576770D01*
X90697384Y-76711205D01*
X90759258Y-76860581D01*
X90790800Y-77019158D01*
X90790800Y-77180842D01*
X90759258Y-77339419D01*
X90697384Y-77488795D01*
X90607557Y-77623230D01*
X90493230Y-77737557D01*
X90358795Y-77827384D01*
X90209419Y-77889258D01*
X90050842Y-77920800D01*
X89889158Y-77920800D01*
X89730581Y-77889258D01*
X89581205Y-77827384D01*
X89446770Y-77737557D01*
X89332443Y-77623230D01*
X89242616Y-77488795D01*
X89180742Y-77339419D01*
X89149200Y-77180842D01*
X89149200Y-77019158D01*
X89180742Y-76860581D01*
X89242616Y-76711205D01*
X89332443Y-76576770D01*
X89446770Y-76462443D01*
X89581205Y-76372616D01*
X89730581Y-76310742D01*
X89889158Y-76279200D01*
X90050842Y-76279200D01*
X90209419Y-76310742D01*
G37*
G36*
X92749419Y-76310742D02*
G01*
X92898795Y-76372616D01*
X93033230Y-76462443D01*
X93147557Y-76576770D01*
X93237384Y-76711205D01*
X93299258Y-76860581D01*
X93330800Y-77019158D01*
X93330800Y-77180842D01*
X93299258Y-77339419D01*
X93237384Y-77488795D01*
X93147557Y-77623230D01*
X93033230Y-77737557D01*
X92898795Y-77827384D01*
X92749419Y-77889258D01*
X92590842Y-77920800D01*
X92429158Y-77920800D01*
X92270581Y-77889258D01*
X92121205Y-77827384D01*
X91986770Y-77737557D01*
X91872443Y-77623230D01*
X91782616Y-77488795D01*
X91720742Y-77339419D01*
X91689200Y-77180842D01*
X91689200Y-77019158D01*
X91720742Y-76860581D01*
X91782616Y-76711205D01*
X91872443Y-76576770D01*
X91986770Y-76462443D01*
X92121205Y-76372616D01*
X92270581Y-76310742D01*
X92429158Y-76279200D01*
X92590842Y-76279200D01*
X92749419Y-76310742D01*
G37*
G36*
X82589419Y-76310742D02*
G01*
X82738795Y-76372616D01*
X82873230Y-76462443D01*
X82987557Y-76576770D01*
X83077384Y-76711205D01*
X83139258Y-76860581D01*
X83170800Y-77019158D01*
X83170800Y-77180842D01*
X83139258Y-77339419D01*
X83077384Y-77488795D01*
X82987557Y-77623230D01*
X82873230Y-77737557D01*
X82738795Y-77827384D01*
X82589419Y-77889258D01*
X82430842Y-77920800D01*
X82269158Y-77920800D01*
X82110581Y-77889258D01*
X81961205Y-77827384D01*
X81826770Y-77737557D01*
X81712443Y-77623230D01*
X81622616Y-77488795D01*
X81560742Y-77339419D01*
X81529200Y-77180842D01*
X81529200Y-77019158D01*
X81560742Y-76860581D01*
X81622616Y-76711205D01*
X81712443Y-76576770D01*
X81826770Y-76462443D01*
X81961205Y-76372616D01*
X82110581Y-76310742D01*
X82269158Y-76279200D01*
X82430842Y-76279200D01*
X82589419Y-76310742D01*
G37*
G36*
X107989419Y-76310742D02*
G01*
X108138795Y-76372616D01*
X108273230Y-76462443D01*
X108387557Y-76576770D01*
X108477384Y-76711205D01*
X108539258Y-76860581D01*
X108570800Y-77019158D01*
X108570800Y-77180842D01*
X108539258Y-77339419D01*
X108477384Y-77488795D01*
X108387557Y-77623230D01*
X108273230Y-77737557D01*
X108138795Y-77827384D01*
X107989419Y-77889258D01*
X107830842Y-77920800D01*
X107669158Y-77920800D01*
X107510581Y-77889258D01*
X107361205Y-77827384D01*
X107226770Y-77737557D01*
X107112443Y-77623230D01*
X107022616Y-77488795D01*
X106960742Y-77339419D01*
X106929200Y-77180842D01*
X106929200Y-77019158D01*
X106960742Y-76860581D01*
X107022616Y-76711205D01*
X107112443Y-76576770D01*
X107226770Y-76462443D01*
X107361205Y-76372616D01*
X107510581Y-76310742D01*
X107669158Y-76279200D01*
X107830842Y-76279200D01*
X107989419Y-76310742D01*
G37*
G36*
X105449419Y-76310742D02*
G01*
X105598795Y-76372616D01*
X105733230Y-76462443D01*
X105847557Y-76576770D01*
X105937384Y-76711205D01*
X105999258Y-76860581D01*
X106030800Y-77019158D01*
X106030800Y-77180842D01*
X105999258Y-77339419D01*
X105937384Y-77488795D01*
X105847557Y-77623230D01*
X105733230Y-77737557D01*
X105598795Y-77827384D01*
X105449419Y-77889258D01*
X105290842Y-77920800D01*
X105129158Y-77920800D01*
X104970581Y-77889258D01*
X104821205Y-77827384D01*
X104686770Y-77737557D01*
X104572443Y-77623230D01*
X104482616Y-77488795D01*
X104420742Y-77339419D01*
X104389200Y-77180842D01*
X104389200Y-77019158D01*
X104420742Y-76860581D01*
X104482616Y-76711205D01*
X104572443Y-76576770D01*
X104686770Y-76462443D01*
X104821205Y-76372616D01*
X104970581Y-76310742D01*
X105129158Y-76279200D01*
X105290842Y-76279200D01*
X105449419Y-76310742D01*
G37*
G36*
X87669419Y-76310742D02*
G01*
X87818795Y-76372616D01*
X87953230Y-76462443D01*
X88067557Y-76576770D01*
X88157384Y-76711205D01*
X88219258Y-76860581D01*
X88250800Y-77019158D01*
X88250800Y-77180842D01*
X88219258Y-77339419D01*
X88157384Y-77488795D01*
X88067557Y-77623230D01*
X87953230Y-77737557D01*
X87818795Y-77827384D01*
X87669419Y-77889258D01*
X87510842Y-77920800D01*
X87349158Y-77920800D01*
X87190581Y-77889258D01*
X87041205Y-77827384D01*
X86906770Y-77737557D01*
X86792443Y-77623230D01*
X86702616Y-77488795D01*
X86640742Y-77339419D01*
X86609200Y-77180842D01*
X86609200Y-77019158D01*
X86640742Y-76860581D01*
X86702616Y-76711205D01*
X86792443Y-76576770D01*
X86906770Y-76462443D01*
X87041205Y-76372616D01*
X87190581Y-76310742D01*
X87349158Y-76279200D01*
X87510842Y-76279200D01*
X87669419Y-76310742D01*
G37*
G36*
X113069419Y-76310742D02*
G01*
X113218795Y-76372616D01*
X113353230Y-76462443D01*
X113467557Y-76576770D01*
X113557384Y-76711205D01*
X113619258Y-76860581D01*
X113650800Y-77019158D01*
X113650800Y-77180842D01*
X113619258Y-77339419D01*
X113557384Y-77488795D01*
X113467557Y-77623230D01*
X113353230Y-77737557D01*
X113218795Y-77827384D01*
X113069419Y-77889258D01*
X112910842Y-77920800D01*
X112749158Y-77920800D01*
X112590581Y-77889258D01*
X112441205Y-77827384D01*
X112306770Y-77737557D01*
X112192443Y-77623230D01*
X112102616Y-77488795D01*
X112040742Y-77339419D01*
X112009200Y-77180842D01*
X112009200Y-77019158D01*
X112040742Y-76860581D01*
X112102616Y-76711205D01*
X112192443Y-76576770D01*
X112306770Y-76462443D01*
X112441205Y-76372616D01*
X112590581Y-76310742D01*
X112749158Y-76279200D01*
X112910842Y-76279200D01*
X113069419Y-76310742D01*
G37*
G36*
X115609419Y-76310742D02*
G01*
X115758795Y-76372616D01*
X115893230Y-76462443D01*
X116007557Y-76576770D01*
X116097384Y-76711205D01*
X116159258Y-76860581D01*
X116190800Y-77019158D01*
X116190800Y-77180842D01*
X116159258Y-77339419D01*
X116097384Y-77488795D01*
X116007557Y-77623230D01*
X115893230Y-77737557D01*
X115758795Y-77827384D01*
X115609419Y-77889258D01*
X115450842Y-77920800D01*
X115289158Y-77920800D01*
X115130581Y-77889258D01*
X114981205Y-77827384D01*
X114846770Y-77737557D01*
X114732443Y-77623230D01*
X114642616Y-77488795D01*
X114580742Y-77339419D01*
X114549200Y-77180842D01*
X114549200Y-77019158D01*
X114580742Y-76860581D01*
X114642616Y-76711205D01*
X114732443Y-76576770D01*
X114846770Y-76462443D01*
X114981205Y-76372616D01*
X115130581Y-76310742D01*
X115289158Y-76279200D01*
X115450842Y-76279200D01*
X115609419Y-76310742D01*
G37*
G36*
X118149419Y-76310742D02*
G01*
X118298795Y-76372616D01*
X118433230Y-76462443D01*
X118547557Y-76576770D01*
X118637384Y-76711205D01*
X118699258Y-76860581D01*
X118730800Y-77019158D01*
X118730800Y-77180842D01*
X118699258Y-77339419D01*
X118637384Y-77488795D01*
X118547557Y-77623230D01*
X118433230Y-77737557D01*
X118298795Y-77827384D01*
X118149419Y-77889258D01*
X117990842Y-77920800D01*
X117829158Y-77920800D01*
X117670581Y-77889258D01*
X117521205Y-77827384D01*
X117386770Y-77737557D01*
X117272443Y-77623230D01*
X117182616Y-77488795D01*
X117120742Y-77339419D01*
X117089200Y-77180842D01*
X117089200Y-77019158D01*
X117120742Y-76860581D01*
X117182616Y-76711205D01*
X117272443Y-76576770D01*
X117386770Y-76462443D01*
X117521205Y-76372616D01*
X117670581Y-76310742D01*
X117829158Y-76279200D01*
X117990842Y-76279200D01*
X118149419Y-76310742D01*
G37*
G36*
X120689419Y-76310742D02*
G01*
X120838795Y-76372616D01*
X120973230Y-76462443D01*
X121087557Y-76576770D01*
X121177384Y-76711205D01*
X121239258Y-76860581D01*
X121270800Y-77019158D01*
X121270800Y-77180842D01*
X121239258Y-77339419D01*
X121177384Y-77488795D01*
X121087557Y-77623230D01*
X120973230Y-77737557D01*
X120838795Y-77827384D01*
X120689419Y-77889258D01*
X120530842Y-77920800D01*
X120369158Y-77920800D01*
X120210581Y-77889258D01*
X120061205Y-77827384D01*
X119926770Y-77737557D01*
X119812443Y-77623230D01*
X119722616Y-77488795D01*
X119660742Y-77339419D01*
X119629200Y-77180842D01*
X119629200Y-77019158D01*
X119660742Y-76860581D01*
X119722616Y-76711205D01*
X119812443Y-76576770D01*
X119926770Y-76462443D01*
X120061205Y-76372616D01*
X120210581Y-76310742D01*
X120369158Y-76279200D01*
X120530842Y-76279200D01*
X120689419Y-76310742D01*
G37*
G36*
X110529419Y-76310742D02*
G01*
X110678795Y-76372616D01*
X110813230Y-76462443D01*
X110927557Y-76576770D01*
X111017384Y-76711205D01*
X111079258Y-76860581D01*
X111110800Y-77019158D01*
X111110800Y-77180842D01*
X111079258Y-77339419D01*
X111017384Y-77488795D01*
X110927557Y-77623230D01*
X110813230Y-77737557D01*
X110678795Y-77827384D01*
X110529419Y-77889258D01*
X110370842Y-77920800D01*
X110209158Y-77920800D01*
X110050581Y-77889258D01*
X109901205Y-77827384D01*
X109766770Y-77737557D01*
X109652443Y-77623230D01*
X109562616Y-77488795D01*
X109500742Y-77339419D01*
X109469200Y-77180842D01*
X109469200Y-77019158D01*
X109500742Y-76860581D01*
X109562616Y-76711205D01*
X109652443Y-76576770D01*
X109766770Y-76462443D01*
X109901205Y-76372616D01*
X110050581Y-76310742D01*
X110209158Y-76279200D01*
X110370842Y-76279200D01*
X110529419Y-76310742D01*
G37*
M02*
